<svg xmlns="http://www.w3.org/2000/svg" id="Layer_1" viewBox="0 0 5865 1502.4"><style id="style3">.st0{fill:#fff}.st1{fill:#004990}.st2{fill:#00aeef}</style><g id="layer2"><rect id="rect4172" width="5911.413" height="1527.351" x="-23.941" y="-11.901" ry="0" fill="#12295d"/></g><g id="layer6" transform="translate(0 751.2)"><text style="line-height:125%;-inkscape-font-specification:FreeSerif" x="1501" y="-102.877" id="text3827" font-size="40px" font-family="FreeSerif" letter-spacing="0px" word-spacing="0px" fill="#000000"><tspan id="tspan3829" x="1501" y="-102.877" style="-inkscape-font-specification:'FreeSerif Bold'" font-weight="bold" font-size="180px" fill="#7d7d7d">DEPARTMENT OF</tspan></text><text style="line-height:125%;-inkscape-font-specification:FreeSerif" x="1494.1" y="217.976" id="text3831" font-size="40px" font-family="FreeSerif" letter-spacing="0px" word-spacing="0px" fill="#000000"><tspan id="tspan3833" x="1494.1" y="217.976" style="-inkscape-font-specification:'FreeSerif Bold'" font-weight="bold" font-size="300px" fill="#ffffff">COMPUTER ENGINEERING</tspan></text><g id="g5" transform="translate(375.6 -375.6)"><circle class="st0" cx="375.6" cy="375.6" r="375.6" id="circle7" fill="#ffffff"/><g id="g9"><path class="st1" d="M375.6 124.7c-138.6 0-251 112.4-251 250.9 0 138.6 112.4 250.9 251 250.9s250.9-112.3 250.9-250.9c0-138.6-112.3-250.9-250.9-250.9m0 496.7c-135.8 0-245.8-110-245.8-245.8 0-135.7 110-245.8 245.8-245.8s245.8 110.1 245.8 245.8c0 135.8-110 245.8-245.8 245.8M105.2 428.8c-.5-2.4-1.2-4.7-2-6.7-.9-2-2.1-3.6-3.6-4.9-1.3-1.2-2.8-2-4.5-2.6-2.6-1-5.3-1.2-8.1-.6s-5 1.7-6.7 3.3c-1.7 1.6-2.7 3.8-3.1 6.4-1.2-1.5-2.3-2.5-3.5-3.1-2.1-1.1-4.6-1.4-7.5-.8-2.9.6-5.2 1.8-6.9 3.7-2.8 3.1-3.7 7.6-2.5 13.5l4.8 23.3 48.1-9.9-4.5-21.6zm-37.3 20.3l-2.2-10.5c-.5-2.3-.6-4.3-.4-5.8.4-1.9 1.7-3.1 3.9-3.5 2-.4 3.6-.1 4.6 1.1 1.1 1.1 1.8 2.7 2.2 4.8l2.4 11.7-10.5 2.2zm18.6-3.8L84 433.5c-.4-2.1-.5-3.7-.1-5 .5-2.2 2-3.6 4.5-4.1 3-.6 5.2 0 6.7 1.9.8 1 1.4 2.6 1.9 4.7l2.4 11.7-12.9 2.6zm-11.4-51c8.8.1 15.6-2.2 20.4-7.1 3.9-3.6 5.9-9 6-16 .1-7-1.7-12.4-5.5-16.2-4.6-5-11.3-7.6-20.1-7.7-9-.1-15.8 2.2-20.4 7.1-3.8 3.7-5.9 9-6 16-.1 7 1.7 12.4 5.5 16.2 4.4 5 11.1 7.5 20.1 7.7m-12.3-33.5c3-2.3 7.3-3.5 12.8-3.4 5.5.1 9.8 1.3 12.8 3.8 3 2.4 4.4 5.7 4.3 9.8-.1 4.1-1.6 7.3-4.6 9.7-3 2.4-7.3 3.5-12.9 3.4-5.5-.1-9.8-1.4-12.7-3.8-2.9-2.5-4.4-5.8-4.3-9.8 0-4.1 1.6-7.3 4.6-9.7M87.6 282l25.6 6.3-1.6 6.6-6.2-.5c1.8 2.5 3 4.6 3.5 6.3 1 3 1 6.5 0 10.3-1.5 6.3-5 11-10.4 13.9-5.4 3.1-12 3.7-19.6 1.9-7.7-1.9-13.4-5.5-17-11-3.6-5.4-4.6-11.6-2.9-18.6 1.5-6.1 4.2-10.5 8.2-13.5 4-2.9 8.4-4.1 13.1-3.5l-2.4 9.8c-3.4 0-6.2 1.2-8.2 3.8-1.1 1.5-1.9 3.2-2.4 5.2-.9 3.8-.3 7.4 2 10.5 2.3 3.2 6.4 5.5 12.2 6.9 5.9 1.4 10.4 1.1 13.5-1 3.1-2.1 5.1-4.8 5.9-8.2.8-3.4.5-6.3-.8-8.9-1.4-2.6-3.6-4.6-6.6-5.8l-2.7 11-8-2 4.8-19.5zM51 303.8c-2 1.5-4.7 2-8.1 1.5L44 301c2.1.2 3.7-.5 4.8-2.1.7-.9 1.2-2.1 1.5-3.5.3-1.5.4-2.8.3-3.9-.3-1.9-1.4-3.3-3.3-4.1l1-4.4c3.3 1.1 5.4 2.8 6.5 5.1 1.1 2.3 1.3 5.1.5 8.4-.9 3.3-2.3 5.7-4.3 7.3m83.4-62.1l5-10-51.8-6.4-5.2 10.4 36.2 37.6 4.8-9.6-7.6-7.5 8.1-16.2 10.5 1.7zm-24.9 8.3L95 235.7l20.1 3.1-5.6 11.2zm5.4-54l-6.9-5.4 22.9-29.4 6.5 5.1 9.8 39.9 15.7-20.1 6.9 5.3-23.3 29.9-6.9-5.3-9.6-39.4-15.1 19.4zm29.6-56.3l-5.4-5.7 6.3-6 5.5 5.7-6.4 6zm3.3 4.6l7.4-7.1 33.9 35.6-7.4 7.1-33.9-35.6zm40.4-3.6c-4.9-7.1-6.7-13.8-5.6-20.2 1-5.6 4-10.1 9-13.6 6.7-4.6 13.2-5.8 19.4-3.5 3.5 1.3 6.1 3.2 8 5.7l-8.5 5.8c-1.9-1.6-3.6-2.6-5.1-3-2.7-.7-5.6-.1-8.5 2-3 2.1-4.5 4.9-4.6 8.6 0 3.7 1.5 7.8 4.6 12.3 3.1 4.5 6.4 7.3 9.8 8.3 3.4 1 6.5.5 9.3-1.4 2.9-2 4.5-4.5 4.7-7.5.1-1.6-.3-3.7-1.1-6.1l8.4-5.8c2.3 4.9 2.9 9.8 1.8 14.6-1.1 4.8-3.7 8.7-7.9 11.5v3.6l1.1-1.1c.2-.2.5-.4.8-.6 1.5-1 2.9-1.5 4.3-1.4 1.4.1 2.5.8 3.5 2.2 1.1 1.7 1.4 3.5.7 5.4-.7 1.9-2.1 3.6-4.3 5.1-1 .6-2.2 1.2-3.8 1.7-.7.2-1.8.5-3.2.9l-.6-3.1c1.3-.4 2.1-.7 2.6-.9 1-.4 1.8-.8 2.4-1.2 1.1-.8 1.7-1.5 1.9-2.3.2-.8.1-1.4-.3-2-.5-.8-1.1-1.1-1.9-1.1-.7 0-1.4.3-2 .7-.4.3-.7.5-1 .9-.3.4-.6.7-1 1.2l-1.9-.3-.2-5.8c-4.3 2.9-9.3 3.7-15.2 2.2-5.9-1.2-11.1-5.2-15.6-11.8m42.5-61.9l-3.4-7.2 7.9-3.7 3.4 7.1-7.9 3.8zm1.7 5.3l9.2-4.4 21 44.4-9.2 4.4-21-44.4zm89.2-33.3l-1.4-7.8 8.6-1.5 1.4 7.8-8.6 1.5zM308.4 53l-1.3-7.8 8.6-1.5 1.4 7.8-8.7 1.5zm-2.6 35.8L300.6 59l10.3-1.8L316 87c.6 3.3 1.4 5.7 2.4 7.1 1.7 2.5 4.6 3.4 8.7 2.7 4.1-.7 6.5-2.5 7.3-5.5.5-1.7.5-4.2-.1-7.5l-5.2-29.7 10.3-1.8 5.2 29.8c.9 5.1.8 9.3-.3 12.4-2.1 5.8-7.3 9.4-15.6 10.9-8.4 1.5-14.5-.2-18.4-4.9-2.1-2.7-3.7-6.5-4.5-11.7m70.9 11.1l-9.6-.4 1.9-49.1 10.7.4 18.1 35 1.4-34.3 9.5.4-1.9 49.1-10.2-.4L378 65l-1.3 34.9zm69.1-47.1l-8.5-1.7 1.6-7.7 8.5 1.7-1.6 7.7zm-10.2 53.8l-10-2 9.8-48.2 10 2-9.8 48.2zm40.5 12.3l-9.1-3.4 1.5-51.9 10.3 3.8-3 38.7L498.9 75l10 3.7-32.8 40.2zm30 13.4l26-41.7 30.6 19-4.6 7.4-22.1-13.8-5.5 8.9 20.3 12.6-4.5 7.2-20.3-12.6-6.7 10.7 23.1 14.4-4.7 7.5-31.6-19.6zm53 37.6l13.3-13.9 7.3 6.9c2.1 2 3.1 3.7 3.1 5.2s-1 3.4-3.1 5.7l-3.1 3.4c-1 1.1-1.9 2.2-2.6 3.4-.4.6-.8 1.4-1.3 2.4l8.2 7.8.9-.9c-.3-1.1-.1-2.2.6-3.3.4-.7 1.4-1.9 3-3.5l2.3-2.4c2.4-2.5 3.8-4.7 4.3-6.5.5-1.9.2-3.9-.8-6.1 2.6 1.2 5.1 1.4 7.5.6 2.4-.8 4.4-2.1 6-3.8 1.3-1.4 2.3-2.9 2.9-4.4.6-1.5 1-3.1 1.1-4.7.1-2-.2-3.8-1-5.7-.8-1.8-2.3-3.9-4.7-6.3l-17-16.2-33.9 35.6 7 6.7zm28-29.4l8.2 7.8c1.5 1.5 2.5 2.8 2.8 3.9.7 2 0 4.1-2.1 6.3-1.9 2-3.9 2.7-5.9 2-1.1-.4-2.5-1.3-4.1-2.8l-8-7.6 9.1-9.6zm19.2 66.4c-.7 2.5.1 5.5 2.5 8.9 1.4 2 2.8 3.5 4.1 4.5 2.5 1.8 4.9 2 7.2.4 1.3-.9 2-2.2 1.9-3.9-.1-1.7-.8-4-2-6.9l-2-5c-2-5-3-8.6-3-11 0-4 1.9-7.4 5.9-10.1 3.6-2.5 7.6-3.2 11.8-2.2 4.2 1 8.1 4.1 11.7 9.3 3 4.3 4.4 8.8 4.3 13.4-.2 4.6-2.4 8.5-6.6 11.6l-5.6-8.1c2.3-1.8 3.3-4.1 2.9-6.8-.3-1.8-1.1-3.7-2.5-5.7-1.5-2.2-3.2-3.7-5-4.4-1.8-.7-3.5-.6-5.1.5-1.4 1-2.1 2.4-1.9 4.2.1 1.2.8 3.4 2 6.5l3.2 8.3c1.4 3.6 2 6.6 1.9 9-.3 3.7-2.2 6.8-5.8 9.3-3.7 2.5-7.8 3.2-12.2 2-4.4-1.2-8.4-4.4-12-9.6-3.7-5.3-5.4-10.4-5.1-15.1.3-4.7 2.6-8.5 6.8-11.4l5.6 8.1c-1.6 1.4-2.6 2.8-3 4.2m68.8 29.5l-3.8-7.8 7.1-3.4 3.8 7.8-7.1 3.4zm-53.4 15.1l44.2-21.3 4.5 9.2-44.3 21.3-4.4-9.2zm57.3 35.4l-38.6 12-3.1-9.9 38.6-12-4.4-14.1 8.3-2.6 11.8 38-8.3 2.6-4.3-14zm-31.3 41.9l48.9-5.2 3.9 35.8-8.7.9-2.8-25.9-10.4 1.1 2.5 23.8-8.5.9-2.5-23.7-12.5 1.3 2.9 27.1-8.8.9-4-37zm44.2 75.3c.3-2.7-.1-4.9-1-6.6-.9-1.7-2.3-2.6-4.2-2.8-1.7-.2-3.2.5-4.1 2-.7 1-1.5 3.1-2.6 6.3l-2.8 8.4c-1.2 3.7-2.7 6.4-4.3 8.2-2.6 2.7-6 3.8-10.4 3.5-4.5-.4-8-2.5-10.7-6.2-2.7-3.7-3.7-8.8-3.1-15.1.6-6.5 2.5-11.4 5.8-14.8 3.3-3.4 7.4-4.9 12.5-4.4l-.9 9.8c-2.3.1-4 .6-5.2 1.4-2.2 1.5-3.4 4.3-3.8 8.4-.2 2.5-.1 4.5.3 6.1.7 3 2.5 4.6 5.3 4.9 1.6.1 2.9-.5 4-1.8 1-1.3 1.9-3.5 2.9-6.6l1.6-5.2c1.6-5.1 3.2-8.6 4.7-10.4 2.6-3.1 6.2-4.4 11-4 4.4.4 7.9 2.4 10.5 5.8 2.6 3.5 3.6 8.4 3 14.6-.5 5.2-2.3 9.6-5.3 13-3.1 3.4-7.2 5-12.4 4.7l.9-9.8c3 .1 5.2-1 6.7-3.4.8-1.6 1.4-3.5 1.6-6m-47.8 33.8l47.7 12-2.5 9.9-47.7-12 2.5-9.9zm60.5 16l-2.1 8.4-7.7-1.9 2.1-8.4 7.7 1.9zm-417 182.9l7.6 2.5-15.5 46.6-9.4-3.1 10.7-32.1-10.9-3.7 2.1-6.2c2.9.8 5 1.3 6.2 1.4 2 .2 3.7-.1 5.3-1 1.1-.6 2-1.5 2.9-2.7.5-.7.8-1.3 1-1.7m58 12.5c-4.9-.5-8.8.3-11.7 2.5-2.9 2.2-4.6 5.1-5 8.6-.2 1.6 0 3.3.5 5.3.5 1.9 1.9 3.8 4.1 5.6-2.5.9-4.5 2.4-6 4.4-1.5 2.1-2.3 4.5-2.6 7.2-.4 4.1.6 7.8 3.1 10.9 2.5 3.2 6.5 5.1 11.9 5.7 5.5.6 9.9-.4 13.2-3 3.4-2.6 5.3-5.9 5.7-10 .3-2.7 0-5.3-1-7.7-1-2.3-2.6-4.3-4.9-5.9 2.5-1.1 4.2-2.5 5.1-4.3.9-1.8 1.4-3.4 1.6-5 .4-3.5-.6-6.7-3-9.5-2.5-2.6-6.1-4.3-11-4.8m3.4 35.6c-.2 2.4-1.1 4.2-2.4 5.4-1.4 1.2-3.2 1.7-5.4 1.4-2.2-.2-3.9-1.1-5-2.5-1.1-1.5-1.5-3.4-1.3-5.8.3-2.5 1.1-4.3 2.5-5.5 1.4-1.2 3.2-1.6 5.3-1.4 2.2.2 3.8 1.1 4.9 2.5 1.2 1.5 1.6 3.4 1.4 5.9m1.3-21c-.2 1.8-.9 3.2-2.1 4.2-1.2 1-2.8 1.4-4.7 1.2-1.9-.2-3.4-.9-4.4-2.2-1-1.2-1.3-2.7-1.2-4.5.2-1.9.9-3.4 2.1-4.3 1.2-1 2.8-1.3 4.7-1.1 1.9.2 3.4.9 4.4 2.1 1 1 1.4 2.6 1.2 4.6m69.3 6c-3.1-2.7-6.8-3.8-11.1-3.3-2 .2-3.8.7-5.3 1.6-1.5.8-2.8 2-3.8 3.5-.1-3.8.1-6.7.6-8.7 1-3.6 3-5.6 6.2-6 2.1-.2 3.7.4 4.9 1.8.7.9 1.1 1.7 1.2 2.5l9.6-1c-.7-3.8-2.6-6.8-5.5-8.8-2.9-2.1-6.7-2.8-11.2-2.4-3.1.3-5.7 1.3-7.9 3-2.1 1.7-3.7 3.7-4.9 6.3-1.3 2.9-2 6.5-2.2 10.7-.1 2.4.1 5.4.5 9.1.7 6.4 2.3 11.4 5 15.2 3.5 4.8 8.3 6.9 14.4 6.3 5.7-.6 9.8-2.8 12.1-6.6 2.3-3.8 3.3-7.9 2.8-12.5-.6-4.5-2.4-8.1-5.4-10.7m-5.5 19.1c-1.1 1.7-2.7 2.7-4.8 2.9-2.2.2-4.1-.4-5.7-1.9-1.6-1.5-2.5-3.6-2.8-6.2-.4-3.2.4-5.7 2.1-7.4 1.1-1.1 2.5-1.8 4.2-1.9 2-.2 3.8.4 5.3 1.7 1.6 1.4 2.5 3.5 2.8 6.4.3 2.5-.1 4.6-1.1 6.4m74.5-24c1.3 3.9 1.1 7.9-.7 11.7-1.7 3.9-5.3 6.7-10.6 8.5-6.6 2.2-11.9 1.5-15.9-1.9-2.1-1.9-3.8-4.6-5.2-8.3l9-3c.6 1.9 1.4 3.3 2.4 4.3 1.9 1.9 4.3 2.3 7.2 1.4 1.8-.6 3.2-1.7 4.1-3.4.9-1.7 1-3.7.3-6-1-3.1-3-4.7-5.8-4.9-1.6-.1-3.9.3-6.9 1.3l-2.2-6.6c3-1 5-2 6-2.9 1.7-1.6 2.1-3.7 1.2-6.5-.6-1.8-1.6-3-3-3.8-1.4-.8-3-.8-4.9-.2-2.2.7-3.5 1.9-4.1 3.6-.6 1.7-.4 3.7.3 6l-8.5 2.8c-.7-2.3-1-4.7-1-7 .2-2.1.8-4.1 1.9-6.2.8-1.5 2-2.8 3.4-3.9 1.5-1.1 3.4-2.1 5.8-2.9 4.5-1.5 8.4-1.5 11.9-.1s5.9 4.1 7.2 7.9c.9 2.8.9 5.3-.1 7.7-.6 1.5-1.4 2.7-2.4 3.5.8-.3 2.3 0 4.3 1 2.9 1.6 5.1 4.2 6.3 7.9M108.7 509.2c-2.8 5-9.1 6.8-14.1 4.1-5-2.8-6.8-9.1-4-14.1s9-6.9 14.1-4.1c5 2.7 6.8 9.1 4 14.1m553.2-6.9c1 5.6-2.8 11-8.5 12-5.6 1-11-2.7-12-8.5-1.1-5.6 2.7-11 8.5-12 5.7-.9 11.1 2.9 12 8.5M375.6 735.1c-198.5 0-359.5-160.9-359.5-359.5C16.1 177.1 177 16.1 375.6 16.1c198.5 0 359.5 160.9 359.5 359.5 0 198.5-161 359.5-359.5 359.5m354.3-359.5c0-195.7-158.6-354.4-354.3-354.4-195.7 0-354.4 158.7-354.4 354.4S179.9 730 375.6 730s354.3-158.7 354.3-354.4" id="path11" fill="#004990"/><path class="st1" d="M375.6 158.3L158.3 375.6h75.8c0 64.2 52 116.2 116.2 116.2s116.2-52 116.2-116.2H284.6c0-64.2 52-116.2 116.2-116.2S517 311.4 517 375.6h75.8L375.6 158.3z" id="path13" fill="#004990"/><path class="st2" d="M517.1 375.6c0-64.2-52-116.2-116.2-116.2s-116.2 52-116.2 116.2h181.9c0 64.2-52 116.2-116.2 116.2s-116.2-52-116.2-116.2h-75.8l217.3 217.3L593 375.6h-75.9z" id="path15" fill="#00aeef"/></g></g></g></svg>