<?xml version="1.0" encoding="UTF-8" standalone="no"?>
<!-- Generator: Adobe Illustrator 19.0.0, SVG Export Plug-In . SVG Version: 6.00 Build 0)  -->

<svg
   xmlns:dc="http://purl.org/dc/elements/1.1/"
   xmlns:cc="http://creativecommons.org/ns#"
   xmlns:rdf="http://www.w3.org/1999/02/22-rdf-syntax-ns#"
   xmlns:svg="http://www.w3.org/2000/svg"
   xmlns="http://www.w3.org/2000/svg"
   xmlns:sodipodi="http://sodipodi.sourceforge.net/DTD/sodipodi-0.dtd"
   xmlns:inkscape="http://www.inkscape.org/namespaces/inkscape"
   version="1.1"
   id="Layer_1"
   x="0px"
   y="0px"
   viewBox="0 0 5865 1502.4"
   xml:space="preserve"
   inkscape:version="0.91 r13725"
   width="100%"
   height="100%"
   sodipodi:docname="cmpeLogoProjbg.svg"
   inkscape:export-filename="/home/yigit/Desktop/few.png"
   inkscape:export-xdpi="57.544758"
   inkscape:export-ydpi="57.544758"><metadata
     id="metadata21"><rdf:RDF><cc:Work
         rdf:about=""><dc:format>image/svg+xml</dc:format><dc:type
           rdf:resource="http://purl.org/dc/dcmitype/StillImage" /><dc:title></dc:title></cc:Work></rdf:RDF></metadata><defs
     id="defs19" /><sodipodi:namedview
     pagecolor="#ffffff"
     bordercolor="#666666"
     borderopacity="1"
     objecttolerance="10"
     gridtolerance="10"
     guidetolerance="10"
     inkscape:pageopacity="0"
     inkscape:pageshadow="2"
     inkscape:window-width="1920"
     inkscape:window-height="1056"
     id="namedview17"
     showgrid="false"
     inkscape:zoom="0.1767767"
     inkscape:cx="2369.3854"
     inkscape:cy="658.25443"
     inkscape:window-x="0"
     inkscape:window-y="24"
     inkscape:window-maximized="1"
     inkscape:current-layer="layer2" /><style
     type="text/css"
     id="style3">
	.st0{fill:#FFFFFF;}
	.st1{fill:#004990;}
	.st2{fill:#00AEEF;}
</style><g
     inkscape:groupmode="layer"
     id="layer2"
     inkscape:label="bg"
     style="display:inline"><rect
       style="fill:#12295d;fill-opacity:1"
       id="rect4172"
       width="5911.4126"
       height="1527.3507"
       x="-23.941126"
       y="-11.900993"
       ry="0" /></g><g
     inkscape:groupmode="layer"
     id="layer6"
     inkscape:label="text"
     style="display:inline"
     transform="translate(0,751.20003)"><text
       xml:space="preserve"
       style="font-style:normal;font-variant:normal;font-weight:normal;font-stretch:normal;font-size:40px;line-height:125%;font-family:FreeSerif;-inkscape-font-specification:FreeSerif;letter-spacing:0px;word-spacing:0px;fill:#000000;fill-opacity:1;stroke:none"
       x="1501"
       y="-102.87652"
       id="text3827"
       sodipodi:linespacing="125%"
       inkscape:export-filename="/home/yigit/Desktop/text3831.png"
       inkscape:export-xdpi="6.5894566"
       inkscape:export-ydpi="6.5894566"><tspan
         sodipodi:role="line"
         id="tspan3829"
         x="1501"
         y="-102.87652"
         style="font-weight:bold;font-size:180px;-inkscape-font-specification:'FreeSerif Bold';fill:#7d7d7d;fill-opacity:1">DEPARTMENT OF</tspan></text>
<text
       xml:space="preserve"
       style="font-style:normal;font-variant:normal;font-weight:normal;font-stretch:normal;font-size:40px;line-height:125%;font-family:FreeSerif;-inkscape-font-specification:FreeSerif;letter-spacing:0px;word-spacing:0px;fill:#000000;fill-opacity:1;stroke:none"
       x="1494.1"
       y="217.97629"
       id="text3831"
       sodipodi:linespacing="125%"
       inkscape:export-xdpi="6.5894566"
       inkscape:export-ydpi="6.5894566"><tspan
         sodipodi:role="line"
         id="tspan3833"
         x="1494.1"
         y="217.97629"
         style="font-weight:bold;font-size:300px;-inkscape-font-specification:'FreeSerif Bold';fill:#ffffff;fill-opacity:1">COMPUTER ENGINEERING</tspan></text>
<g
       style=""
       id="g5"
       inkscape:export-filename="/home/yigit/Desktop/text3831.png"
       inkscape:export-xdpi="6.5894566"
       inkscape:export-ydpi="6.5894566"
       transform="translate(375.6,-375.6)"><circle
         class="st0"
         cx="375.60001"
         cy="375.60001"
         r="375.60001"
         id="circle7"
         style="fill:#ffffff"
         sodipodi:ry="375.60001"
         sodipodi:rx="375.60001"
         sodipodi:cy="375.60001"
         sodipodi:cx="375.60001" /><g
         id="g9"><path
           class="st1"
           d="m 375.6,124.7 c -138.6,0 -251,112.4 -251,250.9 0,138.6 112.4,250.9 251,250.9 138.6,0 250.9,-112.3 250.9,-250.9 C 626.5,237 514.2,124.7 375.6,124.7 m 0,496.7 c -135.8,0 -245.8,-110 -245.8,-245.8 0,-135.7 110,-245.8 245.8,-245.8 135.8,0 245.8,110.1 245.8,245.8 0,135.8 -110,245.8 -245.8,245.8 M 105.2,428.8 c -0.5,-2.4 -1.2,-4.7 -2,-6.7 -0.9,-2 -2.1,-3.6 -3.6,-4.9 -1.3,-1.2 -2.8,-2 -4.5,-2.6 -2.6,-1 -5.3,-1.2 -8.1,-0.6 -2.8,0.6 -5,1.7 -6.7,3.3 -1.7,1.6 -2.7,3.8 -3.1,6.4 -1.2,-1.5 -2.3,-2.5 -3.5,-3.1 -2.1,-1.1 -4.6,-1.4 -7.5,-0.8 -2.9,0.6 -5.2,1.8 -6.9,3.7 -2.8,3.1 -3.7,7.6 -2.5,13.5 l 4.8,23.3 48.1,-9.9 -4.5,-21.6 z m -37.3,20.3 -2.2,-10.5 c -0.5,-2.3 -0.6,-4.3 -0.4,-5.8 0.4,-1.9 1.7,-3.1 3.9,-3.5 2,-0.4 3.6,-0.1 4.6,1.1 1.1,1.1 1.8,2.7 2.2,4.8 l 2.4,11.7 -10.5,2.2 z M 86.5,445.3 84,433.5 c -0.4,-2.1 -0.5,-3.7 -0.1,-5 0.5,-2.2 2,-3.6 4.5,-4.1 3,-0.6 5.2,0 6.7,1.9 0.8,1 1.4,2.6 1.9,4.7 l 2.4,11.7 -12.9,2.6 z m -11.4,-51 c 8.8,0.1 15.6,-2.2 20.4,-7.1 3.9,-3.6 5.9,-9 6,-16 0.1,-7 -1.7,-12.4 -5.5,-16.2 -4.6,-5 -11.3,-7.6 -20.1,-7.7 -9,-0.1 -15.8,2.2 -20.4,7.1 -3.8,3.7 -5.9,9 -6,16 -0.1,7 1.7,12.4 5.5,16.2 4.4,5 11.1,7.5 20.1,7.7 M 62.8,360.8 c 3,-2.3 7.3,-3.5 12.8,-3.4 5.5,0.1 9.8,1.3 12.8,3.8 3,2.4 4.4,5.7 4.3,9.8 -0.1,4.1 -1.6,7.3 -4.6,9.7 -3,2.4 -7.3,3.5 -12.9,3.4 -5.5,-0.1 -9.8,-1.4 -12.7,-3.8 -2.9,-2.5 -4.4,-5.8 -4.3,-9.8 0,-4.1 1.6,-7.3 4.6,-9.7 m 24.8,-78.8 25.6,6.3 -1.6,6.6 -6.2,-0.5 c 1.8,2.5 3,4.6 3.5,6.3 1,3 1,6.5 0,10.3 -1.5,6.3 -5,11 -10.4,13.9 -5.4,3.1 -12,3.7 -19.6,1.9 -7.7,-1.9 -13.4,-5.5 -17,-11 -3.6,-5.4 -4.6,-11.6 -2.9,-18.6 1.5,-6.1 4.2,-10.5 8.2,-13.5 4,-2.9 8.4,-4.1 13.1,-3.5 l -2.4,9.8 c -3.4,0 -6.2,1.2 -8.2,3.8 -1.1,1.5 -1.9,3.2 -2.4,5.2 -0.9,3.8 -0.3,7.4 2,10.5 2.3,3.2 6.4,5.5 12.2,6.9 5.9,1.4 10.4,1.1 13.5,-1 3.1,-2.1 5.1,-4.8 5.9,-8.2 0.8,-3.4 0.5,-6.3 -0.8,-8.9 -1.4,-2.6 -3.6,-4.6 -6.6,-5.8 l -2.7,11 -8,-2 4.8,-19.5 z M 51,303.8 c -2,1.5 -4.7,2 -8.1,1.5 L 44,301 c 2.1,0.2 3.7,-0.5 4.8,-2.1 0.7,-0.9 1.2,-2.1 1.5,-3.5 0.3,-1.5 0.4,-2.8 0.3,-3.9 -0.3,-1.9 -1.4,-3.3 -3.3,-4.1 l 1,-4.4 c 3.3,1.1 5.4,2.8 6.5,5.1 1.1,2.3 1.3,5.1 0.5,8.4 -0.9,3.3 -2.3,5.7 -4.3,7.3 m 83.4,-62.1 5,-10 -51.8,-6.4 -5.2,10.4 36.2,37.6 4.8,-9.6 -7.6,-7.5 8.1,-16.2 10.5,1.7 z M 109.5,250 95,235.7 l 20.1,3.1 -5.6,11.2 z m 5.4,-54 -6.9,-5.4 22.9,-29.4 6.5,5.1 9.8,39.9 15.7,-20.1 6.9,5.3 -23.3,29.9 -6.9,-5.3 -9.6,-39.4 -15.1,19.4 z m 29.6,-56.3 -5.4,-5.7 6.3,-6 5.5,5.7 -6.4,6 z m 3.3,4.6 7.4,-7.1 33.9,35.6 -7.4,7.1 -33.9,-35.6 z m 40.4,-3.6 c -4.9,-7.1 -6.7,-13.8 -5.6,-20.2 1,-5.6 4,-10.1 9,-13.6 6.7,-4.6 13.2,-5.8 19.4,-3.5 3.5,1.3 6.1,3.2 8,5.7 l -8.5,5.8 c -1.9,-1.6 -3.6,-2.6 -5.1,-3 -2.7,-0.7 -5.6,-0.1 -8.5,2 -3,2.1 -4.5,4.9 -4.6,8.6 0,3.7 1.5,7.8 4.6,12.3 3.1,4.5 6.4,7.3 9.8,8.3 3.4,1 6.5,0.5 9.3,-1.4 2.9,-2 4.5,-4.5 4.7,-7.5 0.1,-1.6 -0.3,-3.7 -1.1,-6.1 l 8.4,-5.8 c 2.3,4.9 2.9,9.8 1.8,14.6 -1.1,4.8 -3.7,8.7 -7.9,11.5 l 0,3.6 c 0.5,-0.5 0.9,-0.9 1.1,-1.1 0.2,-0.2 0.5,-0.4 0.8,-0.6 1.5,-1 2.9,-1.5 4.3,-1.4 1.4,0.1 2.5,0.8 3.5,2.2 1.1,1.7 1.4,3.5 0.7,5.4 -0.7,1.9 -2.1,3.6 -4.3,5.1 -1,0.6 -2.2,1.2 -3.8,1.7 -0.7,0.2 -1.8,0.5 -3.2,0.9 l -0.6,-3.1 c 1.3,-0.4 2.1,-0.7 2.6,-0.9 1,-0.4 1.8,-0.8 2.4,-1.2 1.1,-0.8 1.7,-1.5 1.9,-2.3 0.2,-0.8 0.1,-1.4 -0.3,-2 -0.5,-0.8 -1.1,-1.1 -1.9,-1.1 -0.7,0 -1.4,0.3 -2,0.7 -0.4,0.3 -0.7,0.5 -1,0.9 -0.3,0.4 -0.6,0.7 -1,1.2 l -1.9,-0.3 -0.2,-5.8 c -4.3,2.9 -9.3,3.7 -15.2,2.2 -5.9,-1.2 -11.1,-5.2 -15.6,-11.8 m 42.5,-61.9 -3.4,-7.2 7.9,-3.7 3.4,7.1 -7.9,3.8 z m 1.7,5.3 9.2,-4.4 21,44.4 -9.2,4.4 -21,-44.4 z m 89.2,-33.3 -1.4,-7.8 8.6,-1.5 1.4,7.8 -8.6,1.5 z m -13.2,2.2 -1.3,-7.8 8.6,-1.5 1.4,7.8 -8.7,1.5 z M 305.8,88.8 300.6,59 310.9,57.2 316,87 c 0.6,3.3 1.4,5.7 2.4,7.1 1.7,2.5 4.6,3.4 8.7,2.7 4.1,-0.7 6.5,-2.5 7.3,-5.5 0.5,-1.7 0.5,-4.2 -0.1,-7.5 l -5.2,-29.7 10.3,-1.8 5.2,29.8 c 0.9,5.1 0.8,9.3 -0.3,12.4 -2.1,5.8 -7.3,9.4 -15.6,10.9 -8.4,1.5 -14.5,-0.2 -18.4,-4.9 -2.1,-2.7 -3.7,-6.5 -4.5,-11.7 m 70.9,11.1 -9.6,-0.4 1.9,-49.1 10.7,0.4 18.1,35 1.4,-34.3 9.5,0.4 -1.9,49.1 -10.2,-0.4 L 378,65 376.7,99.9 z m 69.1,-47.1 -8.5,-1.7 1.6,-7.7 8.5,1.7 -1.6,7.7 z m -10.2,53.8 -10,-2 9.8,-48.2 10,2 -9.8,48.2 z m 40.5,12.3 -9.1,-3.4 1.5,-51.9 10.3,3.8 -3,38.7 23.1,-31.1 10,3.7 -32.8,40.2 z m 30,13.4 26,-41.7 30.6,19 -4.6,7.4 -22.1,-13.8 -5.5,8.9 20.3,12.6 -4.5,7.2 -20.3,-12.6 -6.7,10.7 23.1,14.4 -4.7,7.5 -31.6,-19.6 z m 53,37.6 13.3,-13.9 7.3,6.9 c 2.1,2 3.1,3.7 3.1,5.2 0,1.5 -1,3.4 -3.1,5.7 l -3.1,3.4 c -1,1.1 -1.9,2.2 -2.6,3.4 -0.4,0.6 -0.8,1.4 -1.3,2.4 l 8.2,7.8 0.9,-0.9 c -0.3,-1.1 -0.1,-2.2 0.6,-3.3 0.4,-0.7 1.4,-1.9 3,-3.5 l 2.3,-2.4 c 2.4,-2.5 3.8,-4.7 4.3,-6.5 0.5,-1.9 0.2,-3.9 -0.8,-6.1 2.6,1.2 5.1,1.4 7.5,0.6 2.4,-0.8 4.4,-2.1 6,-3.8 1.3,-1.4 2.3,-2.9 2.9,-4.4 0.6,-1.5 1,-3.1 1.1,-4.7 0.1,-2 -0.2,-3.8 -1,-5.7 -0.8,-1.8 -2.3,-3.9 -4.7,-6.3 l -17,-16.2 -33.9,35.6 7,6.7 z m 28,-29.4 8.2,7.8 c 1.5,1.5 2.5,2.8 2.8,3.9 0.7,2 0,4.1 -2.1,6.3 -1.9,2 -3.9,2.7 -5.9,2 -1.1,-0.4 -2.5,-1.3 -4.1,-2.8 l -8,-7.6 9.1,-9.6 z m 19.2,66.4 c -0.7,2.5 0.1,5.5 2.5,8.9 1.4,2 2.8,3.5 4.1,4.5 2.5,1.8 4.9,2 7.2,0.4 1.3,-0.9 2,-2.2 1.9,-3.9 -0.1,-1.7 -0.8,-4 -2,-6.9 l -2,-5 c -2,-5 -3,-8.6 -3,-11 0,-4 1.9,-7.4 5.9,-10.1 3.6,-2.5 7.6,-3.2 11.8,-2.2 4.2,1 8.1,4.1 11.7,9.3 3,4.3 4.4,8.8 4.3,13.4 -0.2,4.6 -2.4,8.5 -6.6,11.6 l -5.6,-8.1 c 2.3,-1.8 3.3,-4.1 2.9,-6.8 -0.3,-1.8 -1.1,-3.7 -2.5,-5.7 -1.5,-2.2 -3.2,-3.7 -5,-4.4 -1.8,-0.7 -3.5,-0.6 -5.1,0.5 -1.4,1 -2.1,2.4 -1.9,4.2 0.1,1.2 0.8,3.4 2,6.5 l 3.2,8.3 c 1.4,3.6 2,6.6 1.9,9 -0.3,3.7 -2.2,6.8 -5.8,9.3 -3.7,2.5 -7.8,3.2 -12.2,2 -4.4,-1.2 -8.4,-4.4 -12,-9.6 -3.7,-5.3 -5.4,-10.4 -5.1,-15.1 0.3,-4.7 2.6,-8.5 6.8,-11.4 l 5.6,8.1 c -1.6,1.4 -2.6,2.8 -3,4.2 m 68.8,29.5 -3.8,-7.8 7.1,-3.4 3.8,7.8 -7.1,3.4 z m -53.4,15.1 44.2,-21.3 4.5,9.2 -44.3,21.3 -4.4,-9.2 z m 57.3,35.4 -38.6,12 -3.1,-9.9 38.6,-12 -4.4,-14.1 8.3,-2.6 11.8,38 -8.3,2.6 -4.3,-14 z m -31.3,41.9 48.9,-5.2 3.9,35.8 -8.7,0.9 -2.8,-25.9 -10.4,1.1 2.5,23.8 -8.5,0.9 -2.5,-23.7 -12.5,1.3 2.9,27.1 -8.8,0.9 -4,-37 z m 44.2,75.3 c 0.3,-2.7 -0.1,-4.9 -1,-6.6 -0.9,-1.7 -2.3,-2.6 -4.2,-2.8 -1.7,-0.2 -3.2,0.5 -4.1,2 -0.7,1 -1.5,3.1 -2.6,6.3 l -2.8,8.4 c -1.2,3.7 -2.7,6.4 -4.3,8.2 -2.6,2.7 -6,3.8 -10.4,3.5 -4.5,-0.4 -8,-2.5 -10.7,-6.2 -2.7,-3.7 -3.7,-8.8 -3.1,-15.1 0.6,-6.5 2.5,-11.4 5.8,-14.8 3.3,-3.4 7.4,-4.9 12.5,-4.4 l -0.9,9.8 c -2.3,0.1 -4,0.6 -5.2,1.4 -2.2,1.5 -3.4,4.3 -3.8,8.4 -0.2,2.5 -0.1,4.5 0.3,6.1 0.7,3 2.5,4.6 5.3,4.9 1.6,0.1 2.9,-0.5 4,-1.8 1,-1.3 1.9,-3.5 2.9,-6.6 l 1.6,-5.2 c 1.6,-5.1 3.2,-8.6 4.7,-10.4 2.6,-3.1 6.2,-4.4 11,-4 4.4,0.4 7.9,2.4 10.5,5.8 2.6,3.5 3.6,8.4 3,14.6 -0.5,5.2 -2.3,9.6 -5.3,13 -3.1,3.4 -7.2,5 -12.4,4.7 l 0.9,-9.8 c 3,0.1 5.2,-1 6.7,-3.4 0.8,-1.6 1.4,-3.5 1.6,-6 m -47.8,33.8 47.7,12 -2.5,9.9 -47.7,-12 2.5,-9.9 z m 60.5,16 -2.1,8.4 -7.7,-1.9 2.1,-8.4 7.7,1.9 z m -417,182.9 7.6,2.5 -15.5,46.6 -9.4,-3.1 10.7,-32.1 -10.9,-3.7 2.1,-6.2 c 2.9,0.8 5,1.3 6.2,1.4 2,0.2 3.7,-0.1 5.3,-1 1.1,-0.6 2,-1.5 2.9,-2.7 0.5,-0.7 0.8,-1.3 1,-1.7 m 58,12.5 c -4.9,-0.5 -8.8,0.3 -11.7,2.5 -2.9,2.2 -4.6,5.1 -5,8.6 -0.2,1.6 0,3.3 0.5,5.3 0.5,1.9 1.9,3.8 4.1,5.6 -2.5,0.9 -4.5,2.4 -6,4.4 -1.5,2.1 -2.3,4.5 -2.6,7.2 -0.4,4.1 0.6,7.8 3.1,10.9 2.5,3.2 6.5,5.1 11.9,5.7 5.5,0.6 9.9,-0.4 13.2,-3 3.4,-2.6 5.3,-5.9 5.7,-10 0.3,-2.7 0,-5.3 -1,-7.7 -1,-2.3 -2.6,-4.3 -4.9,-5.9 2.5,-1.1 4.2,-2.5 5.1,-4.3 0.9,-1.8 1.4,-3.4 1.6,-5 0.4,-3.5 -0.6,-6.7 -3,-9.5 -2.5,-2.6 -6.1,-4.3 -11,-4.8 m 3.4,35.6 c -0.2,2.4 -1.1,4.2 -2.4,5.4 -1.4,1.2 -3.2,1.7 -5.4,1.4 -2.2,-0.2 -3.9,-1.1 -5,-2.5 -1.1,-1.5 -1.5,-3.4 -1.3,-5.8 0.3,-2.5 1.1,-4.3 2.5,-5.5 1.4,-1.2 3.2,-1.6 5.3,-1.4 2.2,0.2 3.8,1.1 4.9,2.5 1.2,1.5 1.6,3.4 1.4,5.9 m 1.3,-21 c -0.2,1.8 -0.9,3.2 -2.1,4.2 -1.2,1 -2.8,1.4 -4.7,1.2 -1.9,-0.2 -3.4,-0.9 -4.4,-2.2 -1,-1.2 -1.3,-2.7 -1.2,-4.5 0.2,-1.9 0.9,-3.4 2.1,-4.3 1.2,-1 2.8,-1.3 4.7,-1.1 1.9,0.2 3.4,0.9 4.4,2.1 1,1 1.4,2.6 1.2,4.6 m 69.3,6 c -3.1,-2.7 -6.8,-3.8 -11.1,-3.3 -2,0.2 -3.8,0.7 -5.3,1.6 -1.5,0.8 -2.8,2 -3.8,3.5 -0.1,-3.8 0.1,-6.7 0.6,-8.7 1,-3.6 3,-5.6 6.2,-6 2.1,-0.2 3.7,0.4 4.9,1.8 0.7,0.9 1.1,1.7 1.2,2.5 l 9.6,-1 c -0.7,-3.8 -2.6,-6.8 -5.5,-8.8 -2.9,-2.1 -6.7,-2.8 -11.2,-2.4 -3.1,0.3 -5.7,1.3 -7.9,3 -2.1,1.7 -3.7,3.7 -4.9,6.3 -1.3,2.9 -2,6.5 -2.2,10.7 -0.1,2.4 0.1,5.4 0.5,9.1 0.7,6.4 2.3,11.4 5,15.2 3.5,4.8 8.3,6.9 14.4,6.3 5.7,-0.6 9.8,-2.8 12.1,-6.6 2.3,-3.8 3.3,-7.9 2.8,-12.5 -0.6,-4.5 -2.4,-8.1 -5.4,-10.7 m -5.5,19.1 c -1.1,1.7 -2.7,2.7 -4.8,2.9 -2.2,0.2 -4.1,-0.4 -5.7,-1.9 -1.6,-1.5 -2.5,-3.6 -2.8,-6.2 -0.4,-3.2 0.4,-5.7 2.1,-7.4 1.1,-1.1 2.5,-1.8 4.2,-1.9 2,-0.2 3.8,0.4 5.3,1.7 1.6,1.4 2.5,3.5 2.8,6.4 0.3,2.5 -0.1,4.6 -1.1,6.4 m 74.5,-24 c 1.3,3.9 1.1,7.9 -0.7,11.7 -1.7,3.9 -5.3,6.7 -10.6,8.5 -6.6,2.2 -11.9,1.5 -15.9,-1.9 -2.1,-1.9 -3.8,-4.6 -5.2,-8.3 l 9,-3 c 0.6,1.9 1.4,3.3 2.4,4.3 1.9,1.9 4.3,2.3 7.2,1.4 1.8,-0.6 3.2,-1.7 4.1,-3.4 0.9,-1.7 1,-3.7 0.3,-6 -1,-3.1 -3,-4.7 -5.8,-4.9 -1.6,-0.1 -3.9,0.3 -6.9,1.3 l -2.2,-6.6 c 3,-1 5,-2 6,-2.9 1.7,-1.6 2.1,-3.7 1.2,-6.5 -0.6,-1.8 -1.6,-3 -3,-3.8 -1.4,-0.8 -3,-0.8 -4.9,-0.2 -2.2,0.7 -3.5,1.9 -4.1,3.6 -0.6,1.7 -0.4,3.7 0.3,6 l -8.5,2.8 c -0.7,-2.3 -1,-4.7 -1,-7 0.2,-2.1 0.8,-4.1 1.9,-6.2 0.8,-1.5 2,-2.8 3.4,-3.9 1.5,-1.1 3.4,-2.1 5.8,-2.9 4.5,-1.5 8.4,-1.5 11.9,-0.1 3.5,1.4 5.9,4.1 7.2,7.9 0.9,2.8 0.9,5.3 -0.1,7.7 -0.6,1.5 -1.4,2.7 -2.4,3.5 0.8,-0.3 2.3,0 4.3,1 2.9,1.6 5.1,4.2 6.3,7.9 M 108.7,509.2 c -2.8,5 -9.1,6.8 -14.1,4.1 -5,-2.8 -6.8,-9.1 -4,-14.1 2.8,-5 9,-6.9 14.1,-4.1 5,2.7 6.8,9.1 4,14.1 m 553.2,-6.9 c 1,5.6 -2.8,11 -8.5,12 -5.6,1 -11,-2.7 -12,-8.5 -1.1,-5.6 2.7,-11 8.5,-12 5.7,-0.9 11.1,2.9 12,8.5 M 375.6,735.1 C 177.1,735.1 16.1,574.2 16.1,375.6 16.1,177.1 177,16.1 375.6,16.1 c 198.5,0 359.5,160.9 359.5,359.5 0,198.5 -161,359.5 -359.5,359.5 M 729.9,375.6 C 729.9,179.9 571.3,21.2 375.6,21.2 179.9,21.2 21.2,179.9 21.2,375.6 21.2,571.3 179.9,730 375.6,730 571.3,730 729.9,571.3 729.9,375.6"
           id="path11"
           inkscape:connector-curvature="0"
           style="fill:#004990" /><path
           class="st1"
           d="m 375.6,158.3 -217.3,217.3 75.8,0 c 0,64.2 52,116.2 116.2,116.2 64.2,0 116.2,-52 116.2,-116.2 l -181.9,0 c 0,-64.2 52,-116.2 116.2,-116.2 64.2,0 116.2,52 116.2,116.2 h 75.8 L 375.6,158.3 z"
           id="path13"
           inkscape:connector-curvature="0"
           style="fill:#004990" /><path
           class="st2"
           d="m 517.1,375.6 c 0,-64.2 -52,-116.2 -116.2,-116.2 -64.2,0 -116.2,52 -116.2,116.2 l 181.9,0 c 0,64.2 -52,116.2 -116.2,116.2 -64.2,0 -116.2,-52 -116.2,-116.2 H 158.4 L 375.7,592.9 593,375.6 l -75.9,0 z"
           id="path15"
           inkscape:connector-curvature="0"
           style="fill:#00aeef" /></g></g></g><g
     inkscape:groupmode="layer"
     id="layer5"
     inkscape:label="helperLines"
     style="display:none"
     transform="translate(0,751.20003)"><circle
       id="path3783"
       style="fill:#000000;stroke:none"
       cx="261.46112"
       cy="986.13605"
       r="1.5" /><path
       style="fill:none;stroke:#ff0000;stroke-width:3;stroke-linecap:butt;stroke-linejoin:miter;stroke-miterlimit:4;stroke-dasharray:none;stroke-opacity:1"
       d="m 751.19765,-217.30624 0.0528,463.06377"
       id="path3811"
       inkscape:connector-curvature="0" /><path
       style="fill:none;stroke:#ff0000;stroke-width:3;stroke-linecap:butt;stroke-linejoin:miter;stroke-miterlimit:4;stroke-dasharray:none;stroke-opacity:1"
       d="m 751.28749,216.78751 -0.0625,-462.75"
       id="path3813"
       inkscape:connector-curvature="0" /><path
       style="fill:none;stroke:#ff0000;stroke-width:3;stroke-linecap:butt;stroke-linejoin:miter;stroke-miterlimit:4;stroke-dasharray:none;stroke-opacity:1"
       d="m 750.1,-246.65396 1820.8,0"
       id="path3819"
       inkscape:connector-curvature="0" /><path
       style="fill:none;stroke:#ff0000;stroke-width:3;stroke-linecap:butt;stroke-linejoin:miter;stroke-miterlimit:4;stroke-dasharray:none;stroke-opacity:1"
       d="m 750.45355,246.02268 1810.54695,0"
       id="path3823"
       inkscape:connector-curvature="0" /><path
       style="fill:none;stroke:#ff0000;stroke-width:3;stroke-linecap:butt;stroke-linejoin:miter;stroke-miterlimit:4;stroke-dasharray:none;stroke-opacity:1"
       d="m 1502.1263,-381.09004 0,755.19003"
       id="path3825"
       inkscape:connector-curvature="0" /></g></svg>