<?xml version="1.0" encoding="UTF-8"?>
<svg width="398px" height="64px" viewBox="0 0 398 64" version="1.1" xmlns="http://www.w3.org/2000/svg" xmlns:xlink="http://www.w3.org/1999/xlink">
    <!-- Generator: Sketch 59.1 (86144) - https://sketch.com -->
    <title>cmple-logo-light</title>
    <desc>Created with Sketch.</desc>
    <g id="SAHA" stroke="none" stroke-width="1" fill="none" fill-rule="evenodd">
        <g id="SAHA+" transform="translate(-1270.000000, -1188.000000)">
            <g id="cmple-logo-light" transform="translate(1270.000000, 1188.000000)">
                <g id="g5" fill-rule="nonzero">
                    <circle id="circle7" fill="#FFFFFF" cx="31.5895711" cy="31.5895711" r="31.5895711"></circle>
                    <g id="g9" transform="translate(1.345669, 1.345669)">
                        <path d="M30.2439024,9.14213625 C18.5870479,9.14213625 9.13372582,18.5954584 9.13372582,30.2439024 C9.13372582,41.9007569 18.5870479,51.3456686 30.2439024,51.3456686 C41.9007569,51.3456686 51.3456686,41.9007569 51.3456686,30.2439024 C51.3456686,18.5870479 41.9007569,9.14213625 30.2439024,9.14213625 M30.2439024,50.9167368 C18.8225399,50.9167368 9.57106812,41.6652649 9.57106812,30.2439024 C9.57106812,18.8309504 18.8225399,9.57106812 30.2439024,9.57106812 C41.6652649,9.57106812 50.9167368,18.8309504 50.9167368,30.2439024 C50.9167368,41.6652649 41.6652649,50.9167368 30.2439024,50.9167368 M7.50210261,34.7182506 C7.46005046,34.5164003 7.40117746,34.3229605 7.33389403,34.1547519 C7.25820017,33.9865433 7.15727502,33.8519765 7.03111859,33.7426409 C6.92178301,33.6417157 6.79562658,33.5744323 6.65264929,33.5239697 C6.43397813,33.4398654 6.20689655,33.4230446 5.97140454,33.4735071 C5.73591253,33.5239697 5.5508831,33.6164844 5.4079058,33.7510513 C5.26492851,33.8856182 5.18082422,34.0706476 5.14718251,34.2893188 C5.04625736,34.1631623 4.95374264,34.079058 4.85281749,34.0285955 C4.67619849,33.9360807 4.46593776,33.9108495 4.22203532,33.961312 C3.97813288,34.0117746 3.78469302,34.1126997 3.64171573,34.2724979 C3.40622372,34.5332212 3.33052986,34.9116905 3.431455,35.4079058 L3.83515559,37.3675357 L7.88057191,36.5349033 L7.50210261,34.7182506 L7.50210261,34.7182506 Z M4.36501262,36.4255677 L4.17998318,35.5424727 C4.13793103,35.3490328 4.12952061,35.1808242 4.14634146,35.0546678 C4.17998318,34.8948696 4.28931876,34.7939445 4.47434819,34.7603028 C4.64255677,34.7266611 4.77712363,34.7518923 4.86122792,34.8528175 C4.95374264,34.9453322 5.01261564,35.0798991 5.04625736,35.2565181 L5.24810765,36.2405383 L4.36501262,36.4255677 Z M5.9293524,36.1059714 L5.71909167,35.1135408 C5.68544996,34.9369218 5.67703953,34.8023549 5.71068124,34.6930193 C5.75273339,34.5079899 5.87888982,34.3902439 6.08915055,34.3481918 C6.34146341,34.2977292 6.52649285,34.3481918 6.65264929,34.5079899 C6.71993272,34.5920942 6.77039529,34.7266611 6.81244743,34.9032801 L7.01429773,35.8873003 L5.9293524,36.1059714 L5.9293524,36.1059714 Z M4.9705635,31.8166526 C5.71068124,31.8250631 6.28259041,31.6316232 6.686291,31.2195122 C7.01429773,30.9167368 7.18250631,30.4625736 7.19091674,29.8738436 C7.19932717,29.2851135 7.04793944,28.8309504 6.72834315,28.5113541 C6.34146341,28.0908326 5.77796468,27.8721615 5.03784693,27.8637511 C4.28090833,27.8553406 3.70899916,28.0487805 3.32211943,28.4608915 C3.00252313,28.7720774 2.82590412,29.2178301 2.81749369,29.8065601 C2.80908326,30.3952902 2.96047098,30.8494533 3.28006728,31.1690496 C3.65012616,31.5895711 4.21362489,31.7998318 4.9705635,31.8166526 M3.93608074,28.999159 C4.18839361,28.8057191 4.55004205,28.7047939 5.01261564,28.7132044 C5.47518923,28.7216148 5.83683768,28.8225399 6.08915055,29.0328007 C6.34146341,29.234651 6.45920942,29.5121951 6.45079899,29.8570227 C6.44238856,30.2018503 6.31623213,30.470984 6.06391926,30.6728343 C5.81160639,30.8746846 5.44995795,30.9671993 4.97897393,30.9587889 C4.51640034,30.9503785 4.15475189,30.8410429 3.91084945,30.6391926 C3.66694701,30.4289319 3.54079058,30.1513877 3.54920101,29.8149706 C3.54920101,29.470143 3.68376787,29.2010093 3.93608074,28.999159 M6.02186712,22.371741 L8.17493692,22.901598 L8.04037006,23.4566863 L7.51892347,23.4146341 C7.67031119,23.6248949 7.77123633,23.8015139 7.81328848,23.9444912 C7.89739277,24.196804 7.89739277,24.491169 7.81328848,24.8107653 C7.68713204,25.3406224 7.39276703,25.7359125 6.93860387,25.979815 C6.48444071,26.2405383 5.9293524,26.2910008 5.2901598,26.1396131 C4.64255677,25.979815 4.16316232,25.6770395 3.86038688,25.2144659 C3.55761144,24.7603028 3.47350715,24.2388562 3.61648444,23.6501262 C3.74264087,23.13709 3.96972246,22.7670311 4.30613961,22.5147183 C4.64255677,22.2708158 5.01261564,22.1698907 5.4079058,22.2203532 L5.20605551,23.0445753 C4.92010093,23.0445753 4.68460892,23.1455004 4.51640034,23.3641716 C4.42388562,23.490328 4.35660219,23.6333053 4.31455004,23.8015139 C4.23885618,24.1211102 4.28931876,24.4238856 4.48275862,24.6846089 C4.67619849,24.9537426 5.02102607,25.1471825 5.50883095,25.2649285 C6.00504626,25.3826745 6.38351556,25.3574432 6.64423886,25.1808242 C6.90496215,25.0042052 7.07317073,24.7771236 7.14045416,24.491169 C7.20773759,24.2052145 7.18250631,23.961312 7.07317073,23.7426409 C6.95542473,23.5239697 6.77039529,23.3557611 6.51808242,23.254836 L6.29100084,24.1799832 L5.61816653,24.0117746 L6.02186712,22.371741 L6.02186712,22.371741 Z M2.94365013,24.2052145 C2.77544155,24.3313709 2.54835997,24.373423 2.26240538,24.3313709 L2.3549201,23.9697225 C2.53153911,23.9865433 2.66610597,23.9276703 2.75862069,23.7931034 C2.81749369,23.7174096 2.85954584,23.6164844 2.88477712,23.4987384 C2.91000841,23.372582 2.91841884,23.2632464 2.91000841,23.1707317 C2.88477712,23.0109336 2.79226241,22.8931876 2.63246426,22.8259041 L2.71656854,22.4558452 C2.9941127,22.54836 3.17073171,22.6913373 3.26324643,22.8847771 C3.35576114,23.078217 3.372582,23.313709 3.30529857,23.5912532 C3.22960471,23.8687973 3.1118587,24.0706476 2.94365013,24.2052145 M9.95794786,18.9823381 L10.3784693,18.1412952 L6.02186712,17.6030278 L5.58452481,18.4777124 L8.62910008,21.6400336 L9.03280067,20.8326325 L8.39360807,20.2018503 L9.07485282,18.8393608 L9.95794786,18.9823381 L9.95794786,18.9823381 Z M7.86375105,19.6804037 L6.64423886,18.4777124 L8.33473507,18.7384357 L7.86375105,19.6804037 L7.86375105,19.6804037 Z M8.31791421,15.1387721 L7.73759462,14.6846089 L9.66358284,12.2119428 L10.2102607,12.6408747 L11.0344828,15.9966358 L12.3549201,14.3061396 L12.9352397,14.7518923 L10.9756098,17.2666106 L10.3952902,16.8208579 L9.58788898,13.5071489 L8.31791421,15.1387721 Z M10.8074012,10.4037006 L10.353238,9.92430614 L10.883095,9.4196804 L11.3456686,9.89907485 L10.8074012,10.4037006 Z M11.0849453,10.7905803 L11.7073171,10.1934399 L14.5584525,13.1875526 L13.9360807,13.784693 L11.0849453,10.7905803 Z M14.4827586,10.4878049 C14.0706476,9.89066442 13.9192599,9.32716569 14.0117746,8.78889823 C14.0958789,8.31791421 14.3481918,7.93944491 14.7687132,7.6450799 C15.3322119,7.25820017 15.8788898,7.15727502 16.4003364,7.35071489 C16.6947014,7.46005046 16.9133726,7.61984861 17.0731707,7.83010934 L16.3582843,8.31791421 C16.1984861,8.18334735 16.0555088,8.09924306 15.9293524,8.06560135 C15.7022708,8.00672834 15.4583684,8.05719092 15.2144659,8.23380992 C14.9621531,8.41042893 14.8359966,8.64592094 14.8275862,8.95710681 C14.8275862,9.26829268 14.9537426,9.61312027 15.2144659,9.99158957 C15.4751892,10.3700589 15.7527334,10.6055509 16.038688,10.6896552 C16.3246426,10.7737595 16.5853659,10.7317073 16.8208579,10.5719092 C17.0647603,10.4037006 17.1993272,10.1934399 17.216148,9.941127 C17.2245585,9.80656013 17.1909167,9.62994113 17.1236333,9.42809083 L17.8301093,8.94028595 C18.0235492,9.35239697 18.0740118,9.76450799 17.9814971,10.1682086 C17.8889823,10.5719092 17.6703112,10.8999159 17.3170732,11.1354079 L17.3170732,11.4381833 L17.4095879,11.3456686 C17.4264087,11.3288478 17.45164,11.3120269 17.4768713,11.2952061 C17.6030278,11.2111018 17.7207738,11.1690496 17.8385198,11.1774601 C17.9562658,11.1858705 18.0487805,11.2447435 18.1328848,11.3624895 C18.2253995,11.5054668 18.2506308,11.6568545 18.1917578,11.8166526 C18.1328848,11.9764508 18.0151388,12.1194281 17.8301093,12.2455845 C17.746005,12.2960471 17.6450799,12.3465097 17.510513,12.3885618 C17.45164,12.4053827 17.3591253,12.430614 17.2413793,12.4642557 L17.1909167,12.2035324 C17.3002523,12.1698907 17.3675357,12.1446594 17.4095879,12.1278385 C17.4936922,12.0941968 17.5609756,12.0605551 17.6114382,12.0269134 C17.7039529,11.9596299 17.7544155,11.9007569 17.7712363,11.8334735 C17.7880572,11.7661901 17.7796468,11.7157275 17.746005,11.6652649 C17.7039529,11.5979815 17.6534903,11.5727502 17.5862069,11.5727502 C17.5273339,11.5727502 17.4684609,11.5979815 17.4179983,11.6316232 C17.3843566,11.6568545 17.3591253,11.6736754 17.333894,11.7073171 C17.3086627,11.7409588 17.2834315,11.7661901 17.2497897,11.8082422 L17.0899916,11.7830109 L17.0731707,11.2952061 C16.7115223,11.5391085 16.2910008,11.6063919 15.7947855,11.4802355 C15.2985702,11.3793103 14.8612279,11.0428932 14.4827586,10.4878049 M18.0571909,5.28174937 L17.7712363,4.67619849 L18.4356602,4.36501262 L18.7216148,4.96215307 L18.0571909,5.28174937 L18.0571909,5.28174937 Z M18.2001682,5.7275021 L18.9739277,5.35744323 L20.7401177,9.09167368 L19.9663583,9.46173255 L18.2001682,5.7275021 L18.2001682,5.7275021 Z M25.7022708,2.92682927 L25.5845248,2.27081581 L26.3078217,2.14465938 L26.4255677,2.80067283 L25.7022708,2.92682927 Z M24.5920942,3.1118587 L24.4827586,2.45584525 L25.2060555,2.32968881 L25.3238015,2.98570227 L24.5920942,3.1118587 Z M24.373423,6.12279226 L23.9360807,3.61648444 L24.8023549,3.46509672 L25.2312868,5.97140454 C25.2817494,6.2489487 25.3490328,6.45079899 25.4331371,6.568545 C25.5761144,6.77880572 25.8200168,6.85449958 26.1648444,6.79562658 C26.509672,6.73675357 26.7115223,6.58536585 26.7788057,6.33305299 C26.8208579,6.19007569 26.8208579,5.97981497 26.7703953,5.70227082 L26.333053,3.20437342 L27.1993272,3.0529857 L27.6366695,5.55929352 C27.7123633,5.9882254 27.7039529,6.34146341 27.6114382,6.60218671 C27.4348192,7.08999159 26.9974769,7.39276703 26.2994113,7.51892347 C25.5929352,7.6450799 25.0798991,7.50210261 24.7518923,7.10681245 C24.5752733,6.87973087 24.4407065,6.56013457 24.373423,6.12279226 M30.3364172,7.05634987 L29.529016,7.02270816 L29.6888141,2.89318755 L30.58873,2.92682927 L32.1110177,5.87047939 L32.2287637,2.98570227 L33.0277544,3.01934399 L32.8679563,7.14886459 L32.0100925,7.11522288 L30.4457527,4.12111018 L30.3364172,7.05634987 L30.3364172,7.05634987 Z M36.1480235,3.09503785 L35.4331371,2.95206056 L35.567704,2.30445753 L36.2825904,2.44743482 L36.1480235,3.09503785 Z M35.2901598,7.61984861 L34.4491169,7.45164003 L35.2733389,3.39781329 L36.1143818,3.56602187 L35.2901598,7.61984861 Z M38.6963835,8.65433137 L37.9310345,8.36837679 L38.0571909,4.00336417 L38.9234651,4.32296047 L38.6711522,7.57779647 L40.6139613,4.96215307 L41.4550042,5.27333894 L38.6963835,8.65433137 L38.6963835,8.65433137 Z M41.2195122,9.78132885 L43.4062237,6.27417998 L45.979815,7.87216148 L45.5929352,8.49453322 L43.7342304,7.33389403 L43.2716569,8.0824222 L44.9789739,9.14213625 L44.6005046,9.74768713 L42.8931876,8.68797309 L42.3296888,9.58788898 L44.2724979,10.7989907 L43.8772077,11.4297729 L41.2195122,9.78132885 L41.2195122,9.78132885 Z M45.6770395,12.9436501 L46.7956266,11.7746005 L47.4095879,12.3549201 C47.5862069,12.5231287 47.6703112,12.666106 47.6703112,12.7922624 C47.6703112,12.9184188 47.5862069,13.078217 47.4095879,13.2716569 L47.1488646,13.5576114 C47.0647603,13.6501262 46.9890664,13.7426409 46.9301934,13.843566 C46.8965517,13.8940286 46.86291,13.961312 46.8208579,14.0454163 L47.510513,14.7014298 L47.5862069,14.6257359 C47.5609756,14.5332212 47.5777965,14.4407065 47.6366695,14.3481918 C47.6703112,14.2893188 47.7544155,14.1883936 47.8889823,14.0538267 L48.0824222,13.8519765 C48.2842725,13.6417157 48.4020185,13.4566863 48.4440706,13.3052986 C48.4861228,13.1455004 48.4608915,12.9772918 48.3767872,12.7922624 C48.5954584,12.8931876 48.8057191,12.9100084 49.0075694,12.842725 C49.2094197,12.7754415 49.3776283,12.666106 49.5121951,12.5231287 C49.6215307,12.4053827 49.705635,12.2792262 49.7560976,12.1530698 C49.8065601,12.0269134 49.8402019,11.8923465 49.8486123,11.7577796 C49.8570227,11.5895711 49.8317914,11.4381833 49.764508,11.2783852 C49.6972246,11.1269975 49.5710681,10.9503785 49.3692178,10.7485282 L47.9394449,9.38603869 L45.0883095,12.3801514 L45.6770395,12.9436501 L45.6770395,12.9436501 Z M48.0319596,10.470984 L48.7216148,11.1269975 C48.8477712,11.2531539 48.9318755,11.3624895 48.9571068,11.4550042 C49.0159798,11.6232128 48.9571068,11.7998318 48.7804878,11.9848612 C48.6206897,12.1530698 48.4524811,12.2119428 48.2842725,12.1530698 C48.1917578,12.1194281 48.0740118,12.0437342 47.9394449,11.9175778 L47.2666106,11.2783852 L48.0319596,10.470984 L48.0319596,10.470984 Z M49.646762,16.0555088 C49.587889,16.2657696 49.6551724,16.5180824 49.8570227,16.804037 C49.9747687,16.9722456 50.0925147,17.098402 50.2018503,17.1825063 C50.412111,17.333894 50.6139613,17.3507149 50.8074012,17.216148 C50.9167368,17.1404542 50.9756098,17.0311186 50.9671993,16.8881413 C50.9587889,16.745164 50.8999159,16.5517241 50.7989907,16.3078217 L50.6307822,15.8873003 C50.4625736,15.4667788 50.3784693,15.1640034 50.3784693,14.9621531 C50.3784693,14.6257359 50.5382675,14.3397813 50.8746846,14.1126997 C51.1774601,13.902439 51.5138772,13.843566 51.8671152,13.9276703 C52.2203532,14.0117746 52.54836,14.2724979 52.8511354,14.7098402 C53.1034483,15.0714886 53.2211943,15.4499579 53.2127839,15.8368377 C53.195963,16.2237174 53.0109336,16.5517241 52.6576955,16.8124474 L52.1867115,16.1312027 C52.3801514,15.979815 52.4642557,15.7863751 52.430614,15.5592935 C52.4053827,15.4079058 52.3380992,15.2481077 52.2203532,15.0798991 C52.0941968,14.8948696 51.9512195,14.7687132 51.7998318,14.7098402 C51.6484441,14.6509672 51.5054668,14.6593776 51.3708999,14.7518923 C51.2531539,14.8359966 51.1942809,14.9537426 51.2111018,15.1051304 C51.2195122,15.2060555 51.2783852,15.3910849 51.3793103,15.6518082 L51.6484441,16.3498738 C51.7661901,16.6526493 51.8166526,16.9049622 51.8082422,17.1068124 C51.7830109,17.4179983 51.6232128,17.6787216 51.3204373,17.8889823 C51.0092515,18.0992431 50.6644239,18.1581161 50.294365,18.0571909 C49.9243061,17.9562658 49.587889,17.687132 49.2851135,17.2497897 C48.9739277,16.804037 48.8309504,16.3751051 48.8561817,15.979815 C48.881413,15.5845248 49.0748528,15.2649285 49.4280908,15.0210261 L49.8990749,15.7022708 C49.764508,15.8200168 49.6804037,15.9377628 49.646762,16.0555088 M55.4331371,18.5365854 L55.1135408,17.8805719 L55.7106812,17.5946173 L56.0302775,18.2506308 L55.4331371,18.5365854 Z M50.941968,19.8065601 L54.6593776,18.0151388 L55.0378469,18.7888982 L51.3120269,20.5803196 L50.941968,19.8065601 L50.941968,19.8065601 Z M55.7611438,22.783852 L52.5147183,23.7931034 L52.253995,22.960471 L55.5004205,21.9512195 L55.1303616,20.765349 L55.8284272,20.5466779 L56.8208579,23.7426409 L56.1227923,23.961312 L55.7611438,22.783852 Z M53.1286796,26.3078217 L57.2413793,25.8704794 L57.569386,28.881413 L56.8376787,28.9571068 L56.6021867,26.7788057 L55.7275021,26.8713204 L55.9377628,28.8730025 L55.2228764,28.9486964 L55.0126156,26.9554247 L53.961312,27.0647603 L54.2052145,29.3439865 L53.4650967,29.4196804 L53.1286796,26.3078217 L53.1286796,26.3078217 Z M56.8460892,32.6408747 C56.8713204,32.4137931 56.8376787,32.2287637 56.7619849,32.0857864 C56.686291,31.9428091 56.568545,31.8671152 56.4087468,31.8502944 C56.2657696,31.8334735 56.1396131,31.8923465 56.0639193,32.0185029 C56.0050463,32.1026072 55.9377628,32.2792262 55.8452481,32.54836 L55.6097561,33.254836 C55.508831,33.5660219 55.3826745,33.7931034 55.2481077,33.9444912 C55.0294365,34.1715728 54.7434819,34.2640875 54.373423,34.2388562 C53.9949537,34.2052145 53.7005887,34.0285955 53.4735071,33.7174096 C53.2464256,33.4062237 53.1623213,32.9772918 53.2127839,32.4474348 C53.2632464,31.9007569 53.4230446,31.4886459 53.7005887,31.2026913 C53.9781329,30.9167368 54.3229605,30.7905803 54.7518923,30.8326325 L54.6761985,31.6568545 C54.4827586,31.6652649 54.3397813,31.7073171 54.2388562,31.7746005 C54.0538267,31.9007569 53.9529016,32.1362489 53.9192599,32.4810765 C53.902439,32.6913373 53.9108495,32.8595458 53.9444912,32.9941127 C54.0033642,33.2464256 54.1547519,33.3809924 54.3902439,33.4062237 C54.5248108,33.4146341 54.6341463,33.3641716 54.7266611,33.254836 C54.8107653,33.1455004 54.8864592,32.960471 54.9705635,32.6997477 L55.1051304,32.2624054 C55.2396972,31.8334735 55.3742641,31.5391085 55.5004205,31.3877208 C55.7190917,31.1269975 56.0218671,31.0176619 56.4255677,31.0513036 C56.7956266,31.0849453 57.0899916,31.2531539 57.3086627,31.5391085 C57.5273339,31.8334735 57.6114382,32.2455845 57.5609756,32.7670311 C57.5189235,33.2043734 57.3675357,33.5744323 57.1152229,33.8603869 C56.8544996,34.1463415 56.509672,34.2809083 56.0723297,34.255677 L56.1480235,33.431455 C56.4003364,33.4398654 56.5853659,33.3473507 56.7115223,33.1455004 C56.7788057,33.0109336 56.8292683,32.8511354 56.8460892,32.6408747 M52.8259041,35.4835997 L56.8376787,36.4928511 L56.627418,37.3254836 L52.6156434,36.3162321 L52.8259041,35.4835997 Z M57.9142136,36.8292683 L57.7375946,37.5357443 L57.0899916,37.3759462 L57.2666106,36.6694701 L57.9142136,36.8292683 Z M22.842725,52.2119428 L23.4819176,52.4222035 L22.1783011,56.3414634 L21.3877208,56.0807401 L22.2876367,53.3809924 L21.3708999,53.0698066 L21.5475189,52.54836 C21.7914214,52.6156434 21.9680404,52.6576955 22.0689655,52.666106 C22.2371741,52.6829268 22.3801514,52.6576955 22.5147183,52.5820017 C22.607233,52.5315391 22.6829268,52.4558452 22.7586207,52.3549201 C22.8006728,52.2960471 22.8259041,52.2455845 22.842725,52.2119428 M27.7207738,53.2632464 C27.3086627,53.2211943 26.980656,53.2884777 26.7367536,53.4735071 C26.4928511,53.6585366 26.3498738,53.902439 26.3162321,54.196804 C26.2994113,54.3313709 26.3162321,54.4743482 26.3582843,54.6425568 C26.4003364,54.8023549 26.5180824,54.9621531 26.7031119,55.1135408 C26.4928511,55.1892347 26.3246426,55.3153911 26.1984861,55.4835997 C26.0723297,55.6602187 26.0050463,55.862069 25.979815,56.0891505 C25.9461733,56.4339781 26.0302775,56.745164 26.2405383,57.0058873 C26.450799,57.275021 26.7872161,57.4348192 27.2413793,57.4852817 C27.7039529,57.5357443 28.0740118,57.45164 28.3515559,57.2329689 C28.6375105,57.0142977 28.7973087,56.7367536 28.8309504,56.391926 C28.8561817,56.1648444 28.8309504,55.9461733 28.7468461,55.744323 C28.6627418,55.5508831 28.5281749,55.3826745 28.3347351,55.2481077 C28.5449958,55.1555929 28.6879731,55.0378469 28.7636669,54.8864592 C28.8393608,54.7350715 28.881413,54.6005046 28.8982338,54.4659378 C28.9318755,54.1715728 28.8477712,53.902439 28.6459209,53.666947 C28.4356602,53.4482759 28.1328848,53.3052986 27.7207738,53.2632464 M28.0067283,56.2573591 C27.9899075,56.4592094 27.9142136,56.6105971 27.804878,56.7115223 C27.687132,56.8124474 27.5357443,56.8544996 27.3507149,56.8292683 C27.1656854,56.8124474 27.0227082,56.7367536 26.9301934,56.6190076 C26.8376787,56.4928511 26.804037,56.333053 26.8208579,56.1312027 C26.8460892,55.920942 26.9133726,55.7695542 27.0311186,55.6686291 C27.1488646,55.567704 27.3002523,55.5340622 27.4768713,55.5508831 C27.6619008,55.567704 27.7964676,55.6433978 27.8889823,55.7611438 C27.9899075,55.8873003 28.0235492,56.0470984 28.0067283,56.2573591 M28.1160639,54.491169 C28.0992431,54.6425568 28.0403701,54.7603028 27.9394449,54.8444071 C27.8385198,54.9285114 27.7039529,54.9621531 27.5441548,54.9453322 C27.3843566,54.9285114 27.2582002,54.8696384 27.1740959,54.7603028 C27.0899916,54.6593776 27.0647603,54.5332212 27.0731707,54.3818335 C27.0899916,54.2220353 27.1488646,54.0958789 27.2497897,54.020185 C27.3507149,53.9360807 27.4852817,53.9108495 27.6450799,53.9276703 C27.804878,53.9444912 27.9310345,54.0033642 28.0151388,54.1042893 C28.0992431,54.1883936 28.1328848,54.3229605 28.1160639,54.491169 M33.9444912,54.9957948 C33.6837679,54.7687132 33.372582,54.6761985 33.0109336,54.7182506 C32.842725,54.7350715 32.6913373,54.7771236 32.5651808,54.8528175 C32.4390244,54.9201009 32.3296888,55.0210261 32.2455845,55.1471825 C32.2371741,54.8275862 32.253995,54.5836838 32.2960471,54.4154752 C32.3801514,54.1126997 32.54836,53.9444912 32.8174937,53.9108495 C32.9941127,53.8940286 33.1286796,53.9444912 33.2296047,54.0622372 C33.2884777,54.137931 33.3221194,54.2052145 33.3305299,54.2724979 L34.137931,54.1883936 C34.079058,53.8687973 33.9192599,53.6164844 33.6753574,53.4482759 C33.431455,53.2716569 33.1118587,53.2127839 32.7333894,53.2464256 C32.4726661,53.2716569 32.253995,53.3557611 32.0689655,53.4987384 C31.8923465,53.6417157 31.7577796,53.8099243 31.6568545,54.0285955 C31.5475189,54.2724979 31.4886459,54.5752733 31.4718251,54.9285114 C31.4634146,55.1303616 31.4802355,55.3826745 31.5138772,55.6938604 C31.5727502,56.2321278 31.7073171,56.6526493 31.9343987,56.9722456 C32.2287637,57.3759462 32.6324643,57.5525652 33.1455004,57.5021026 C33.6248949,57.45164 33.9697225,57.2666106 34.1631623,56.9470143 C34.3566022,56.627418 34.4407065,56.2825904 34.3986543,55.8957107 C34.3481918,55.5172414 34.196804,55.2144659 33.9444912,54.9957948 M33.4819176,56.6021867 C33.3894029,56.745164 33.254836,56.8292683 33.078217,56.8460892 C32.8931876,56.86291 32.7333894,56.8124474 32.5988225,56.686291 C32.4642557,56.5601346 32.3885618,56.3835156 32.3633305,56.1648444 C32.3296888,55.8957107 32.3969722,55.68545 32.5399495,55.5424727 C32.6324643,55.4499579 32.7502103,55.3910849 32.8931876,55.3826745 C33.0613961,55.3658537 33.2127839,55.4163162 33.3389403,55.5256518 C33.4735071,55.6433978 33.549201,55.8200168 33.5744323,56.0639193 C33.5996636,56.27418 33.5660219,56.450799 33.4819176,56.6021867 M39.7476871,54.5836838 C39.8570227,54.9116905 39.8402019,55.2481077 39.6888141,55.567704 C39.5458368,55.8957107 39.2430614,56.1312027 38.7973087,56.2825904 C38.2422204,56.4676198 37.7964676,56.4087468 37.4600505,56.1227923 C37.2834315,55.9629941 37.1404542,55.7359125 37.0227082,55.4247267 L37.7796468,55.1724138 C37.8301093,55.3322119 37.8973928,55.4499579 37.9814971,55.5340622 C38.1412952,55.6938604 38.3431455,55.7275021 38.5870479,55.6518082 C38.7384357,55.6013457 38.8561817,55.508831 38.9318755,55.3658537 C39.0075694,55.2228764 39.0159798,55.0546678 38.9571068,54.8612279 C38.8730025,54.6005046 38.7047939,54.4659378 38.4693019,54.4491169 C38.3347351,54.4407065 38.1412952,54.4743482 37.8889823,54.5584525 L37.7039529,54.0033642 C37.9562658,53.9192599 38.1244743,53.8351556 38.2085786,53.7594617 C38.3515559,53.6248949 38.3851976,53.4482759 38.3095038,53.2127839 C38.2590412,53.0613961 38.1749369,52.960471 38.0571909,52.8931876 C37.9394449,52.8259041 37.804878,52.8259041 37.6450799,52.8763667 C37.4600505,52.9352397 37.3507149,53.0361648 37.3002523,53.1791421 C37.2497897,53.3221194 37.2666106,53.490328 37.3254836,53.6837679 L36.6105971,53.9192599 C36.5517241,53.72582 36.5264929,53.5239697 36.5264929,53.3305299 C36.5433137,53.1539108 36.5937763,52.9857023 36.686291,52.8090833 C36.7535744,52.6829268 36.8544996,52.5735913 36.9722456,52.4810765 C37.098402,52.3885618 37.2582002,52.3044575 37.4600505,52.2371741 C37.8385198,52.1110177 38.1665265,52.1110177 38.4608915,52.2287637 C38.7552565,52.3465097 38.9571068,52.5735913 39.0664424,52.8931876 C39.1421362,53.1286796 39.1421362,53.3389403 39.058032,53.5407906 C39.0075694,53.666947 38.940286,53.7678722 38.8561817,53.8351556 C38.9234651,53.8099243 39.0496215,53.8351556 39.2178301,53.9192599 C39.4617325,54.0538267 39.646762,54.2724979 39.7476871,54.5836838 M7.79646762,41.4802355 C7.56097561,41.9007569 7.03111859,42.0521447 6.61059714,41.8250631 C6.19007569,41.5895711 6.03868797,41.059714 6.27417998,40.6391926 C6.50967199,40.2186712 7.03111859,40.058873 7.46005046,40.294365 C7.88057191,40.5214466 8.03195963,41.059714 7.79646762,41.4802355 M54.3229605,40.8999159 C54.4070648,41.3708999 54.0874685,41.8250631 53.608074,41.9091674 C53.13709,41.9932717 52.6829268,41.6820858 52.5988225,41.1942809 C52.5063078,40.7232969 52.8259041,40.2691337 53.313709,40.1850294 C53.7931034,40.1093356 54.2472666,40.4289319 54.3229605,40.8999159 M30.2439024,60.4793944 C13.549201,60.4793944 0.00841042893,46.9470143 0.00841042893,30.2439024 C0.00841042893,13.549201 13.5407906,0.00841042893 30.2439024,0.00841042893 C46.9386039,0.00841042893 60.4793944,13.5407906 60.4793944,30.2439024 C60.4793944,46.9386039 46.9386039,60.4793944 30.2439024,60.4793944 M60.0420521,30.2439024 C60.0420521,13.784693 46.7031119,0.437342304 30.2439024,0.437342304 C13.784693,0.437342304 0.437342304,13.784693 0.437342304,30.2439024 C0.437342304,46.7031119 13.784693,60.0504626 30.2439024,60.0504626 C46.7031119,60.0504626 60.0420521,46.7031119 60.0420521,30.2439024" id="path11" fill="#004990"></path>
                        <path d="M30.2439024,11.9680404 L11.9680404,30.2439024 L18.3431455,30.2439024 C18.3431455,35.6433978 22.7165685,40.0168209 28.1160639,40.0168209 C33.5155593,40.0168209 37.8889823,35.6433978 37.8889823,30.2439024 L22.5904121,30.2439024 C22.5904121,24.8444071 26.9638352,20.470984 32.3633305,20.470984 C37.7628259,20.470984 42.1362489,24.8444071 42.1362489,30.2439024 L48.5113541,30.2439024 L30.2439024,11.9680404 Z" id="path13" fill="#004990"></path>
                        <path d="M42.1446594,30.2439024 C42.1446594,24.8444071 37.7712363,20.470984 32.371741,20.470984 C26.9722456,20.470984 22.5988225,24.8444071 22.5988225,30.2439024 L37.8973928,30.2439024 C37.8973928,35.6433978 33.5239697,40.0168209 28.1244743,40.0168209 C22.724979,40.0168209 18.3515559,35.6433978 18.3515559,30.2439024 L11.9764508,30.2439024 L30.2523129,48.5197645 L48.5281749,30.2439024 L42.1446594,30.2439024 Z" id="path15" fill="#00AEEF"></path>
                    </g>
                </g>
                <g id="layer6" transform="translate(71.707317, 6.296047)" font-family="Helvetica" font-weight="normal">
                    <g id="Group">
                        <g id="text3827" transform="translate(1.169050, 0.000000)" fill="#7D7D7D" font-size="15.1387721">
                            <text id="tspan3829">
                                <tspan x="0" y="15.0103448">DEPARTMENT OF</tspan>
                            </text>
                        </g>
                        <g id="text3831" transform="translate(0.000000, 19.613961)" fill="#000000" font-size="25.2312868">
                            <text id="tspan3833">
                                <tspan x="0.00841042893" y="24.0820858">COMPUTER ENGINEERING</tspan>
                            </text>
                        </g>
                    </g>
                </g>
            </g>
        </g>
    </g>
</svg>