<svg xmlns="http://www.w3.org/2000/svg" viewBox="0 0 203.79 89.53"><defs><style>.cls-1{fill:#0058a9;}.cls-1,.cls-2{fill-rule:evenodd;}.cls-2{fill:#bcbec0;}</style></defs><title>gozen-logo</title><g id="Layer_2" data-name="Layer 2"><g id="Layer_1-2" data-name="Layer 1"><path class="cls-1" d="M33.08,43.07h-13l3-8.71H42.3V54.92a22.91,22.91,0,0,1-7.13,4.31,30.45,30.45,0,0,1-10.36,2.49A22.67,22.67,0,0,1,7.62,55.39,22,22,0,0,1,.22,38.87,22.21,22.21,0,0,1,7.05,22.45a22.76,22.76,0,0,1,16.62-6.93q11.11,0,18.12,7.48l-5.62,6.5a14.26,14.26,0,0,0-4.93-3.34,16.39,16.39,0,0,0-7.5-1.72,14.13,14.13,0,0,0-10.18,4.39,13.81,13.81,0,0,0-3.73,10A14.4,14.4,0,0,0,14,48.78a12.29,12.29,0,0,0,9.67,3.9,17.31,17.31,0,0,0,9.41-2.78V43.07Z" transform="translate(-0.22 -0.93)"/><path class="cls-1" d="M88.08,7.75,82,14.38,75.44,7.75,81.63.93l6.45,6.82Zm-20.85,0-6.12,6.63L54.6,7.75,60.79.93l6.44,6.82ZM71.9,52.33a14.17,14.17,0,0,0,10.17-4.07,13.85,13.85,0,0,0,0-19.95A13.92,13.92,0,0,0,71.9,24.12a13.09,13.09,0,0,0-9.79,4.19,13.83,13.83,0,0,0-4,9.92,14,14,0,0,0,4,10,13.24,13.24,0,0,0,9.79,4.12Zm23.88-14a22.43,22.43,0,0,1-7.07,16.6,23.23,23.23,0,0,1-16.87,6.87,22,22,0,0,1-16.37-7,23.16,23.16,0,0,1-6.69-16.54,23.15,23.15,0,0,1,6.69-16.55,22,22,0,0,1,16.37-7,23.11,23.11,0,0,1,16.87,7,22.43,22.43,0,0,1,7.07,16.61Z" transform="translate(-0.22 -0.93)"/><polygon class="cls-1" points="130.92 60.82 97.13 60.82 117.85 25.4 99.66 25.4 101.56 16.79 132.82 16.79 113.12 51.89 133.07 51.89 130.92 60.82 130.92 60.82"/><polygon class="cls-1" points="137.57 60.82 137.57 17.03 161.33 17.03 163.1 25.47 146.99 25.47 146.99 33.5 159.18 33.5 159.18 42.19 147.06 42.19 147.06 51.9 164.74 51.9 162.28 60.82 137.57 60.82 137.57 60.82"/><polygon class="cls-1" points="177.96 59.39 169.56 60.33 169.56 14.99 195.26 41.86 195.26 15.73 203.79 15.04 203.79 60.82 177.96 34.76 177.96 59.39 177.96 59.39"/><path class="cls-2" d="M16.71,80.41q0-2.82,3.82-3.7a24,24,0,0,1,5.15-.41h6.25a3.33,3.33,0,0,1,1.28.26c.59.24.88.59.88,1s-.29.8-.88,1a3.68,3.68,0,0,1-1.28.25H27.58a22.06,22.06,0,0,0-3.95.22c-.87.2-1.3.64-1.3,1.3s.59,1.21,1.77,1.41a20.44,20.44,0,0,0,2.25.08,17.63,17.63,0,0,1,4.54.44q3.2.92,3.2,3.63,0,4.16-9,4.15H18.86a3.61,3.61,0,0,1-1.25-.25c-.6-.27-.9-.62-.9-1.06s.29-.8.87-1a3.73,3.73,0,0,1,1.28-.25h4.37a26.23,26.23,0,0,0,3.92-.18c.88-.2,1.32-.64,1.32-1.3,0-1-1.18-1.53-3.52-1.53q-8.25,0-8.24-4.11Zm32.94,10A4,4,0,0,1,47.9,90a1.68,1.68,0,0,1-1.17-1.58V85.26l-5.62-5.91a1.11,1.11,0,0,1-.27-.84,1.87,1.87,0,0,1,1.22-1.73,4.34,4.34,0,0,1,1.85-.4,3,3,0,0,1,2.35,1l3.53,3.94,3.51-3.94a3,3,0,0,1,2.35-1,4.29,4.29,0,0,1,1.84.4,1.86,1.86,0,0,1,1.23,1.73,1.12,1.12,0,0,1-.28.84l-5.87,6.2v2.9A1.73,1.73,0,0,1,51.4,90a4,4,0,0,1-1.75.4Zm15.57-10q0-2.82,3.82-3.7a24,24,0,0,1,5.15-.41h6.25a3.33,3.33,0,0,1,1.28.26q.87.36.87,1c0,.46-.29.8-.87,1a3.73,3.73,0,0,1-1.28.25H76.09a22.06,22.06,0,0,0-4,.22c-.87.2-1.3.64-1.3,1.3s.59,1.21,1.77,1.41a20.21,20.21,0,0,0,2.24.08,17.72,17.72,0,0,1,4.55.44q3.19.92,3.19,3.63,0,4.16-9,4.15H67.36a3.56,3.56,0,0,1-1.24-.25c-.6-.27-.9-.62-.9-1.06s.29-.8.87-1a3.67,3.67,0,0,1,1.27-.25h4.37a26,26,0,0,0,3.92-.18c.89-.2,1.33-.64,1.33-1.3,0-1-1.18-1.53-3.52-1.53q-8.25,0-8.24-4.11Zm30.29,8A1.74,1.74,0,0,0,96.69,90a4.41,4.41,0,0,0,3.49,0,1.73,1.73,0,0,0,1.18-1.58l0-9.54h4.12a7.33,7.33,0,0,0,1.82-.15,1.05,1.05,0,0,0,.9-1.06c0-.22,0-.36-.07-.4a4.5,4.5,0,0,0-2.65-1H91.37c-1.82,0-2.72.45-2.72,1.36a1.05,1.05,0,0,0,.9,1.06,7.33,7.33,0,0,0,1.82.15h4.12l0,9.54Zm33.82-4.2a3,3,0,0,1-1.47.38h-5.37a3.42,3.42,0,0,1-1.27-.25c-.59-.24-.88-.59-.88-1s.29-.81.88-1a3.42,3.42,0,0,1,1.27-.25h5.37a3.45,3.45,0,0,1,1.27.25c.58.24.88.59.88,1a1.09,1.09,0,0,1-.68.92Zm0,5.8a3,3,0,0,1-1.47.38h-6.27a11.26,11.26,0,0,1-5.54-1.36,6.13,6.13,0,0,1-3.42-5.68,6.05,6.05,0,0,1,3.42-5.65,11.26,11.26,0,0,1,5.54-1.36h6.24a3.35,3.35,0,0,1,1.28.25q.87.36.87,1.05t-.87,1a3.51,3.51,0,0,1-1.28.25h-4.34a6.24,6.24,0,0,0-3.32.85,3.9,3.9,0,0,0-1.92,3.59A3.85,3.85,0,0,0,120.19,87a6.3,6.3,0,0,0,3.3.85h4.37a3.45,3.45,0,0,1,1.27.25c.58.24.88.59.88,1a1.1,1.1,0,0,1-.68.92Zm8.75.12a4,4,0,0,0,1.55.3,2.52,2.52,0,0,0,2.37-1l4.69-8,2.7,4.3a1.68,1.68,0,0,0,1.57.73,2.84,2.84,0,0,0,1.23-.29A1.19,1.19,0,0,0,153,85a1.07,1.07,0,0,0-.18-.63l-4.72-6.89a1.31,1.31,0,0,0-.37-.33,3.52,3.52,0,0,0-2.4-.81,2.52,2.52,0,0,0-2.35,1l-6.14,10a1.67,1.67,0,0,0-.27.88c0,.81.5,1.42,1.52,1.83Zm13.76-10.78,6.16,10a2.54,2.54,0,0,0,2.35,1A4.1,4.1,0,0,0,162.2,90a1.78,1.78,0,0,0,1.22-1.69,1.67,1.67,0,0,0-.27-.88l-6.14-10a2.52,2.52,0,0,0-2.35-1,4,4,0,0,0-1.85.44,1.8,1.8,0,0,0-1.22,1.69,1.63,1.63,0,0,0,.25.88Zm18.31,1q0-2.82,3.82-3.7a24.08,24.08,0,0,1,5.16-.41h6.25a3.32,3.32,0,0,1,1.27.26c.59.24.88.59.88,1s-.29.8-.88,1a3.67,3.67,0,0,1-1.27.25H181a22.21,22.21,0,0,0-4,.22c-.87.2-1.3.64-1.3,1.3s.59,1.21,1.77,1.41a20.57,20.57,0,0,0,2.25.08,17.63,17.63,0,0,1,4.54.44q3.19.92,3.2,3.63,0,4.16-9,4.15H172.3a3.61,3.61,0,0,1-1.25-.25c-.6-.27-.9-.62-.9-1.06s.29-.8.87-1a3.73,3.73,0,0,1,1.28-.25h4.37a26.23,26.23,0,0,0,3.92-.18c.88-.2,1.32-.64,1.32-1.3,0-1-1.17-1.53-3.52-1.53q-8.23,0-8.24-4.11Z" transform="translate(-0.22 -0.93)"/></g></g></svg>