<svg width="86" height="46" xmlns="http://www.w3.org/2000/svg"><path d="M16.307 44.858c-3.717 0-4.22-.396-4.522-.959-.348-.647-.174-1.495.291-3.525.32-1.4.71-3.1.8-4.61C8.19 33.245 4.895 29.628 3.57 25.52c-1.39-4.324-.248-6.94.856-9.465l.235-.546c.202-.478.446-.887.671-1.265.325-.542.493-.837.454-1.12-.125-.164-.997-.497-1.518-.695-1.273-.485-2.717-1.035-3.01-2.397-.164-.759-.015-1.496.412-2.021.378-.464.932-.72 1.562-.72.533 0 1.11.182 1.716.543.384.227.717.442 1.017.636.879.563 1.286.814 1.779.814.072 0 .144-.004.22-.015.262-.033.404-.152.854-.603.128-.128.261-.261.408-.398 1.233-1.147 2.705-2.032 4.773-2.87 3.25-1.31 5.513-1.504 9.621-1.856l.232-.02c.403-.035.898-.092 1.441-.153 1.37-.156 3.075-.35 4.506-.35.214 0 1.061.021 1.061.021.508 0 1.2-.019 2.015-.042a146.64 146.64 0 0 1 4.185-.074c3.573 0 6.244.224 8.16.685 1.122.274 2.746.983 3.538 1.43.454.02.93.029 1.418.029.529 0 2.77-.036 3.342-.036 1.645 0 3.301.074 4.724.458-.35-.818-.612-1.693-.21-2.522.356-.733 1.059-1.15 1.927-1.15.983 0 2.246.598 2.571 1.566.104.343.121.733.094 1.233a2.09 2.09 0 0 1 .613-.506 3.786 3.786 0 0 1 1.728-.432c1.225 0 2.126.666 2.346 1.741.223 1.138-.836 1.773-1.687 2.283-1.646.989-1.688 1.296-1.387 1.863.327.618 2.828 2.595 4.21 3.42.319.196.743.341 1.191.495.436.15.873.306 1.272.504 1.444.715 4.788 1.37 6.783 1.762.82.16 1.465.289 1.788.378 1.77.482 2.856 1.222 3.998 2.723 1.257 1.661 1.694 7.513.407 10.378-.898 1.986-1.276 2.46-2.507 3.615-1.29 1.21-4.737 1.752-7.58 1.752-1.469 0-4.233-.152-6.235-1.174-1.435-.736-3.047-1.733-4.467-2.616-.524-.325-1.03-.639-1.503-.924a7.672 7.672 0 0 0-.032.683c-.013.669-.03 1.504-.399 2.45-.503 1.288-1.696 1.836-2.656 2.277-.622.284-1.172.537-1.518.92.062 1.021.31 2.43.512 3.585.378 2.135.465 2.715.186 3.223-.22.432-.54 1.052-7.685 1.052-2.847 0-3.191-.203-3.442-.348-1.017-.607-.628-1.792-.042-3.582.31-.948 1.138-3.47.73-3.942-.418-.485-.98-.693-1.883-.693-.949 0-2.155.232-3.55.504-2.019.392-4.53.879-7.456.879h-.009c-.033 1.033.453 2.759.74 3.773.415 1.476.577 2.097.373 2.654-.21.573-.471 1.288-6.359 1.288-3.8 0-4.159-.325-4.422-.563-.622-.592-.476-1.41-.15-3.202.163-.896.468-2.589.388-3.49-.34.005-.729.041-1.121.073-.266.023-.531.044-.788.061.074 1.01.223 2.211.35 3.23.172 1.397.255 2.084.225 2.47-.048.713-.12 1.678-7.278 1.678z" stroke="#E31C37" stroke-width="2.123" fill="none" stroke-linecap="round" stroke-linejoin="round"/></svg>