<?xml version="1.0" encoding="UTF-8"?>
<svg width="86px" height="46px" viewBox="0 0 86 46" version="1.1" xmlns="http://www.w3.org/2000/svg" xmlns:xlink="http://www.w3.org/1999/xlink">
    <!-- Generator: Sketch 59.1 (86144) - https://sketch.com -->
    <title>Group</title>
    <desc>Created with Sketch.</desc>
    <g id="Page-1" stroke="none" stroke-width="1" fill="none" fill-rule="evenodd" stroke-linecap="round" stroke-linejoin="round">
        <g id="Desktop-HD-Copy-5" transform="translate(-277.000000, -1529.000000)" stroke="#E31C37" stroke-width="2.12308846">
            <g id="Group-5" transform="translate(-222.000000, 643.000000)">
                <g id="jonas-jacobsson-2xaF4TbjXT0-unsplash-+-Rectangle-Copy-6-Mask-Copy" transform="translate(0.000000, 538.000000)">
                    <g id="Group-20" transform="translate(357.000000, 84.000000)">
                        <g id="Group-19">
                            <g id="Group-24" transform="translate(0.000000, 216.000000)">
                                <g id="Group-21" transform="translate(115.000000, 0.000000)">
                                    <g id="Group-23">
                                        <g id="craig-mckay-jmURdhtm7Ng-unsplash">
                                            <g id="Group-25" transform="translate(0.000000, 0.669194)">
                                                <g id="Group" transform="translate(28.000000, 48.957447)">
                                                    <path d="M15.3074678,43.2315017 C11.5899399,43.2315017 11.0867679,42.8351919 10.7852894,42.2723476 C10.4371029,41.625182 10.6111961,40.7777535 11.0761525,38.7477196 C11.3967389,37.3479869 11.7852641,35.6468058 11.8765569,34.1374556 C7.18877753,31.6183584 3.89374424,28.0009771 2.56893704,23.8924245 C1.1783141,19.5688527 2.32053569,16.9527861 3.42454169,14.4273648 L3.66020451,13.8813848 C3.86189791,13.4028617 4.10605309,12.9939037 4.33110046,12.6165661 C4.655933,12.0748021 4.82365699,11.7796778 4.78544139,11.4972016 C4.66017917,11.3327752 3.78758982,10.9997063 3.26743314,10.8015513 C1.99358007,10.3167042 0.549879912,9.76650807 0.256893704,8.40471998 C0.0934158923,7.64582879 0.242032085,6.9080179 0.668772865,6.38311816 C1.04668261,5.91935132 1.6008087,5.66427956 2.23136597,5.66427956 C2.76426118,5.66427956 3.34174124,5.84557023 3.94682145,6.20604355 C4.33110046,6.43371091 4.66442535,6.64873008 4.96378082,6.84266894 C5.84273945,7.40551324 6.25037243,7.65636894 6.74292895,7.65636894 C6.81511396,7.65636894 6.88729897,7.65215288 6.96373015,7.64161273 C7.22487004,7.60788423 7.36711696,7.48983449 7.81721172,7.03871583 C7.94459702,6.91012594 8.0783516,6.77731998 8.2248447,6.64029796 C9.4583591,5.49352904 10.9296594,4.60815598 12.9975476,3.77126763 C16.247996,2.46007229 18.5112083,2.26613343 22.6193845,1.91409224 L22.8508011,1.89511996 C23.2541879,1.85928343 23.7488675,1.80236659 24.2923782,1.74123369 C25.6617702,1.58523938 27.3666103,1.39130052 28.7975719,1.39130052 C29.0120038,1.39130052 29.8591161,1.41238083 29.8591161,1.41238083 C30.3665343,1.41238083 31.0586611,1.39340856 31.8739271,1.37022021 C33.0692259,1.33649172 34.5256646,1.29643912 36.0585344,1.29643912 C39.6316923,1.29643912 42.3025376,1.51989042 44.2196865,1.98154923 C45.3406772,2.25559327 46.9648399,2.96389172 47.7567519,3.41079431 C48.2110928,3.43187463 48.6866646,3.44030675 49.174975,3.44030675 C49.703624,3.44030675 51.9456054,3.40447022 52.5167162,3.40447022 C54.1621098,3.40447022 55.8181188,3.47825131 57.240588,3.86191297 C56.8902784,3.0439969 56.6291385,2.169164 57.0304023,1.34070778 C57.3870811,0.607112956 58.0898234,0.189722799 58.9581666,0.189722799 C59.9411565,0.189722799 61.2043942,0.78840363 61.5292267,1.7559899 C61.633258,2.09959897 61.6502428,2.48958473 61.6226426,2.9891881 C61.7882435,2.79103317 61.9899369,2.61606659 62.2362152,2.48326063 C62.7669873,2.20500053 63.3784368,2.05111426 63.9644092,2.05111426 C65.1894312,2.05111426 66.0896207,2.71725208 66.3104219,3.79234794 C66.5333462,4.93068474 65.4739251,5.5652021 64.6225666,6.07534562 C62.977173,7.06401221 62.9347113,7.37178475 63.2361898,7.93884511 C63.5631455,8.55649822 66.0641437,10.5338314 67.4462743,11.3580715 C67.7647375,11.5541184 68.1893552,11.6995726 68.6373269,11.8534589 C69.07256,12.0031291 69.5099162,12.1591234 69.9090569,12.3572783 C71.352757,13.0719008 74.6966214,13.7274985 76.6923245,14.1195923 C77.5118367,14.2798027 78.1572555,14.4083925 78.479965,14.4969299 C80.2506208,14.979669 81.335519,15.7195879 82.4777406,17.220506 C83.7346089,18.8816345 84.1719652,24.7335289 82.8853736,27.5983431 C81.9873071,29.5841084 81.6093974,30.0584154 80.3780061,31.2136165 C79.0871683,32.4236263 75.6413957,32.9653903 72.7985803,32.9653903 C71.3294031,32.9653903 68.5651419,32.8136121 66.5630695,31.791217 C65.1278617,31.0555141 63.5164375,30.0584154 62.0960913,29.1751504 C61.5716885,28.8505136 61.0663934,28.536417 60.5929447,28.2518328 C60.5717138,28.4478797 60.5653446,28.6692229 60.5610984,28.9348348 C60.5483598,29.6030807 60.5313751,30.437861 60.1619577,31.384367 C59.6587858,32.672374 58.4656101,33.2204621 57.5059741,33.6610406 C56.8839092,33.9456248 56.3340292,34.1985885 55.9879658,34.5822501 C56.0495354,35.6025372 56.2979367,37.010702 56.4996301,38.165903 C56.8775399,40.3013385 56.9645865,40.8810471 56.6864619,41.3890826 C56.4656607,41.8212289 56.1450744,42.4409901 49.0008817,42.4409901 C46.1538201,42.4409901 45.8098797,42.2386191 45.5593553,42.0931649 C44.5423959,41.486052 44.9309211,40.3013385 45.5168935,38.5116201 C45.8268644,37.5630061 46.6548689,35.0418009 46.247236,34.569602 C45.8289875,34.0847548 45.2663691,33.8760597 44.3640565,33.8760597 C43.415036,33.8760597 42.2091217,34.1079431 40.8142526,34.3798792 C38.7951955,34.7719729 36.2835818,35.2589281 33.3579659,35.2589281 C33.3558428,35.2589281 33.3537197,35.2589281 33.3494736,35.2589281 C33.3155041,36.2918634 33.8016914,38.0183408 34.0883083,39.0323038 C34.5044337,40.5079256 34.6657884,41.1297947 34.4619719,41.6863149 C34.2517862,42.2596994 33.9906463,42.9743219 28.103322,42.9743219 C24.3029936,42.9743219 23.9441917,42.6496852 23.6809287,42.4114776 C23.0588638,41.8191209 23.2053569,41.0012048 23.5301894,39.2093784 C23.6936672,38.3134652 23.999392,36.6207162 23.9187146,35.7184789 C23.5790205,35.724803 23.1904953,35.7606395 22.7977239,35.79226 C22.5323378,35.8154483 22.2669518,35.8365286 22.0100581,35.8533929 C22.0843662,36.8631398 22.2329824,38.0647175 22.3603677,39.0828965 C22.5323378,40.4805212 22.6151383,41.1677393 22.5854151,41.553509 C22.536584,42.2660235 22.464399,43.2315017 15.3074678,43.2315017 Z" id="hipoAnimal"></path>
                                                </g>
                                            </g>
                                        </g>
                                    </g>
                                </g>
                            </g>
                        </g>
                    </g>
                </g>
            </g>
        </g>
    </g>
</svg>