<svg width="345" height="406" xmlns="http://www.w3.org/2000/svg"><g fill="none" fill-rule="evenodd"><path d="M345 173.33c0 95.268-77.23 172.5-172.5 172.5S0 268.597 0 173.33C0 78.06 77.23.83 172.5.83S345 78.06 345 173.33" fill="#FDD140"/><path d="M305.843 262.547a18.75 18.75 0 0 0 1.496-7.363c0-10.394-8.425-18.82-18.818-18.82-8.74 0-16.083 5.957-18.201 14.032a12.22 12.22 0 0 0-4.708-.94c-6.778 0-12.273 5.495-12.273 12.273 0 .276.024.547.04.818h52.464zm-203.704-107c0-8.836-7.163-16-16-16-8.836 0-16 7.164-16 16 0 .055.008.107.009.162a8 8 0 0 0-9.609 7.838h49.6a8 8 0 0 0-8-8m24.7-22h-14a3.5 3.5 0 1 1 0-7h14a3.5 3.5 0 1 1 0 7m-19 64h-21a3.5 3.5 0 1 1 0-7h21a3.5 3.5 0 1 1 0 7m153 29h-6a3.5 3.5 0 1 1 0-7h6a3.5 3.5 0 1 1 0 7" fill="#282828"/><path d="M325.143 398.249h-85v-28.003a2 2 0 0 0-2-2h-21a2 2 0 0 0-2 2v28.003h-83v-38h62.643a3.47 3.47 0 0 0 .453 1.935 3.502 3.502 0 0 0 4.776 1.296l28.285-16.201 28.977 16.511a3.499 3.499 0 0 0 4.774-1.309 3.46 3.46 0 0 0 .408-2.232h62.684v38zm-204.574-153h4.574v5.209l-4.574-5.209zm-6.426-18h11v11h-10.5c-.07 0-.134.017-.202.021l-.298-.339v-10.682zm18-7h81v-37h-81v37zm13.97-71.091c5.367-4.655 9.553-10.481 12.214-16.909h28.629c2.663 6.431 6.845 12.25 12.216 16.909a40.466 40.466 0 0 1 13.805 27.091h-80.67a40.472 40.472 0 0 1 13.807-27.091zm4.53-23.909h44v-12h-44v12zm80.5 102v10.682l-.298.339c-.068-.004-.133-.021-.202-.021h-10.5v-11h11zm-11 18h4.574l-4.574 5.209v-5.209zm78.485 68h-78.485v-11h72.43l6.055 11zm2.515 25h-12.174l-19.261-9.631a3.5 3.5 0 0 0-1.565-.369h-48v-8h81v18zm-169-36h81v26h-24c-.544 0-1.08.126-1.565.369l-19.261 9.631h-29.674a3.5 3.5 0 0 0-2.941 1.603l-3.56 5.516v-43.119zm39.092-39.744a3.506 3.506 0 0 0 2.54.011l39.368-15.148v17.881h-81v-18.16l39.092 15.416zm27.924-17.256l-26.624 10.243-25.976-10.243h52.6zm-67.016-7h81v-11h-81v11zm68.489 45.062l12.51-8.815v17.543l-12.51-8.728zm-6.087 4.289l10.964 7.649h-21.821l10.857-7.649zm-43.804 0l10.857 7.649h-21.821l10.964-7.649zm-18.598-13.104l12.51 8.815-12.51 8.728v-17.543zm18.617 4.554l-9.653-6.801h19.402l-9.75 6.801zm34.017-6.801h19.402l-9.654 6.801-9.748-6.801zm-15.634 19.753l-12.296-8.663 12.296-8.578v17.241zm7-17.241l12.295 8.578-12.295 8.663v-17.241zm145.754 78.488h-68.803c-.052 0-.1.013-.15.015l-22.915-13.056a3.5 3.5 0 0 0-3.473.004l-22.877 13.102a3.52 3.52 0 0 0-.654-.065h-67.636l5.16-8h28.594a3.5 3.5 0 0 0 1.565-.37l19.26-9.63h77.349l19.26 9.63c.487.243 1.022.37 1.566.37h28.593l5.16 8zm11.746 0h-3.416l-8.644-13.397a3.5 3.5 0 0 0-2.94-1.603h-10.5v-18h1.5a3.5 3.5 0 1 0 0-7h-3.024l-8.91-16.188a3.5 3.5 0 0 0-3.066-1.812h-74.5v-34.182l17.13-19.509c.56-.638.87-1.459.87-2.309v-15.5a3.5 3.5 0 0 0-3.5-3.5h-14.5v-37h1.5a3.5 3.5 0 1 0 0-7h-1.645a47.468 47.468 0 0 0-16.24-32.379 38.696 38.696 0 0 1-9.114-11.621h3.499a3.5 3.5 0 0 0 3.5-3.5v-19a3.5 3.5 0 0 0-3.5-3.5h-22V66.074l9.313-6.752a2 2 0 0 0 0-3.238l-9.313-6.752v-1.583a3.5 3.5 0 1 0-7 0v58.5h-22a3.499 3.499 0 0 0-3.5 3.5v19a3.5 3.5 0 0 0 3.5 3.5h3.492a38.715 38.715 0 0 1-9.108 11.621 47.464 47.464 0 0 0-16.24 32.379h-1.644a3.5 3.5 0 1 0 0 7h1.5v37h-14.5a3.499 3.499 0 0 0-3.5 3.5v15.5c0 .85.309 1.671.87 2.309l17.13 19.509v92.182h-1.5a3.5 3.5 0 1 0 0 7h1.5v41.5a3.5 3.5 0 0 0 3.5 3.5h200a3.5 3.5 0 0 0 3.5-3.5v-41.5h1.5a3.5 3.5 0 1 0 0-7z" fill="#282828"/><path d="M153.143 188.246h-11a2 2 0 0 0-2 2V212a2 2 0 0 0 2 2h11a2 2 0 0 0 2-2v-21.753a2 2 0 0 0-2-2m25 0h-11a2 2 0 0 0-2 2V212a2 2 0 0 0 2 2h11a2 2 0 0 0 2-2v-21.753a2 2 0 0 0-2-2m25 0h-11a2 2 0 0 0-2 2V212a2 2 0 0 0 2 2h11a2 2 0 0 0 2-2v-21.753a2 2 0 0 0-2-2m-50 180h-11a2 2 0 0 0-2 2V388a2 2 0 0 0 2 2h11a2 2 0 0 0 2-2v-17.753a2 2 0 0 0-2-2m25 0h-11a2 2 0 0 0-2 2V388a2 2 0 0 0 2 2h11a2 2 0 0 0 2-2v-17.753a2 2 0 0 0-2-2m25 0h-11a2 2 0 0 0-2 2V388a2 2 0 0 0 2 2h11a2 2 0 0 0 2-2v-17.753a2 2 0 0 0-2-2m47 2V388a2 2 0 0 0 2 2h11a2 2 0 0 0 2-2v-17.753a2 2 0 0 0-2-2h-11a2 2 0 0 0-2 2m27 19.753h11a2 2 0 0 0 2-2v-17.753a2 2 0 0 0-2-2h-11a2 2 0 0 0-2 2v17.753a2 2 0 0 0 2 2m25 0h11a2 2 0 0 0 2-2v-17.753a2 2 0 0 0-2-2h-11a2 2 0 0 0-2 2v17.753a2 2 0 0 0 2 2" fill="#282828"/><path d="M107.315 306.99c-4.673 4.938-12.103 8.037-18.387 5.441-7.172-2.96-9.932-12.123-8.484-19.745 1.448-7.623 5.993-14.22 9.778-20.994 3.785-6.773 6.963-14.544 5.32-22.126-1.119-5.15-4.386-9.628-8.316-13.138-7.763-6.934-18.425-10.512-28.799-9.665 0 0 14.608 6.486 19.865 12.123 5.414 5.806 5.326 15.366 2.61 22.825-2.94 8.072-9.652 14.103-14.29 21.335-5.449 8.495-7.99 18.995-6.148 28.917 1.844 9.923 8.3 19.072 17.425 23.381 10.513 4.962 23.506 3.036 33.182-3.41 5.838-3.888 10.528-9.235 14.086-15.303v-38.748c-3.156 3.296-5.522 7.46-7.55 11.6-2.992 6.106-5.618 12.57-10.292 17.507m140.4-11.749c-1.43-12.672-6.602-25.826-14.77-34.99-18.79-21.062-45.541-25.753-63.456-31.009-9.177-2.69-37.474-5.993-44.346-23.423v-18.067c-8.093 4.647-13.586 11.837-15.73 21.36-.776 3.472-1.51 6.778-1.44 9.851.704 30.514 28.253 36.464 56.633 43.938 5.178 1.364 10.459 2.751 15.699 4.304 14.97 4.427 39.453 19.391 39.65 28.036h27.76zm-27.613-74.989h14.018c.023 0 .039.011.062.013 7.039-3.813 12.896-9.286 16.668-16.188 9.522-17.428.936-36.46-6.994-42.906-12.544-10.191-26.665-11.422-41.538-9.897-11.438 1.165-21.71 1.708-24.61-3.33-3.49-6.051-.545-9.611 3.279-14.174 2.345-2.789 6.428-9.211 6.768-15.164.284-5-.7-9.619-1.723-12.932 2.53-2.997 4.29-7.965 1.848-16.031-1.887-6.27-9.747-21.501-17.171-19.285-4.531 1.351-9.503 11.448-7.486 27.018 1.023 7.885 5.153 10.996 8.987 12.15.32 2.488.678 4.642.286 8.08-.341 3.104-2.903 6.638-5.627 9.644-3.62 3.994-7.944 9.146-8.312 16.194-1.527 29.036 31.809 31.675 49.802 30.461 12.755-.859 22.583 9.603 15.004 17.508-.54.564-1.864 1.029-3.261 1.412v27.427z" fill="#376FA0"/></g></svg>