<svg height="13" width="19" xmlns="http://www.w3.org/2000/svg"><path d="m2.713.114h14.132a1.82 1.82 0 0 1 1.813 1.813v8.565a1.82 1.82 0 0 1 -1.813 1.813h-14.132a1.819 1.819 0 0 1 -1.813-1.813v-8.565c0-.997.816-1.813 1.813-1.813zm-.144 1.072 6.754 6.02c.288.255.638.255.925 0l6.741-6.02a.701.701 0 0 0 -.144-.015h-14.132a.7.7 0 0 0 -.144.015zm-.613.871v8.435c0 .07.011.142.032.212l4.653-4.472zm15.645 0-4.67 4.169 4.638 4.478a.745.745 0 0 0 .032-.212zm-5.463 4.878-1.188 1.062a1.746 1.746 0 0 1 -2.327 0l-1.19-1.056-4.49 4.307h13.675l-4.479-4.313z" fill="#376fa0" stroke="#376fa0" stroke-width=".2"/></svg>