<svg width="19" height="13" xmlns="http://www.w3.org/2000/svg"><path d="M2.713.114h14.132c.996 0 1.813.816 1.813 1.813v8.565c0 .997-.817 1.813-1.813 1.813H2.713A1.819 1.819 0 0 1 .9 10.492V1.927C.9.93 1.716.114 2.713.114zm-.144 1.072l6.754 6.02c.288.255.638.255.925 0l6.741-6.02a.701.701 0 0 0-.144-.015H2.713a.7.7 0 0 0-.144.015zm-.613.871v8.435c0 .07.011.142.032.212l4.653-4.472-4.685-4.175zm15.645 0l-4.67 4.169 4.638 4.478a.745.745 0 0 0 .032-.212V2.057zm-5.463 4.878L10.95 7.997a1.746 1.746 0 0 1-2.327 0l-1.19-1.056-4.49 4.307h13.675l-4.479-4.313z" fill="#376FA0" stroke="#376FA0" stroke-width=".2"/></svg>