<?xml version="1.0" encoding="UTF-8"?>
<svg width="158px" height="32px" viewBox="0 0 158 32" version="1.1" xmlns="http://www.w3.org/2000/svg" xmlns:xlink="http://www.w3.org/1999/xlink">
    <!-- Generator: Sketch 59.1 (86144) - https://sketch.com -->
    <title>pyist-logo</title>
    <desc>Created with Sketch.</desc>
    <defs>
        <linearGradient x1="0.959176447%" y1="9.14856261e-08%" x2="74.0505936%" y2="64.1103734%" id="linearGradient-1">
            <stop stop-color="#5A9FD4" offset="0%"></stop>
            <stop stop-color="#306998" offset="100%"></stop>
        </linearGradient>
        <linearGradient x1="49.9999998%" y1="82.2756107%" x2="24.2424815%" y2="44.914431%" id="linearGradient-2">
            <stop stop-color="#FFD43B" offset="0%"></stop>
            <stop stop-color="#FFE873" offset="100%"></stop>
        </linearGradient>
    </defs>
    <g id="SAHA" stroke="none" stroke-width="1" fill="none" fill-rule="evenodd">
        <g id="SAHA+" transform="translate(-1274.000000, -1083.000000)" fill-rule="nonzero">
            <g id="pyist-logo" transform="translate(1274.000000, 1083.000000)">
                <g id="python-logo-generic">
                    <path d="M15.4642338,0.110868829 C14.1873021,0.116802192 12.9678608,0.225706029 11.894878,0.415569932 C8.73400534,0.973992348 8.16011338,2.14281834 8.16011311,4.29833258 L8.16011311,7.14511146 L15.629643,7.14511146 L15.629643,8.09403775 L8.16011311,8.09403775 L5.35686296,8.09403775 C3.18600961,8.09403775 1.28514827,9.39884573 0.69058316,11.8810372 C0.00475982821,14.7262047 -0.0256601648,16.5016356 0.69058316,19.4724475 C1.22154403,21.683805 2.4895505,23.2594469 4.6604033,23.2594469 L7.22859831,23.2594469 L7.22859831,19.8467946 C7.22859831,17.3813547 9.36175508,15.2066326 11.894878,15.2066321 L19.3557022,15.2066321 C21.4325313,15.2066321 23.0904671,13.4966386 23.0904671,11.4109269 L23.0904671,4.29833258 C23.0904671,2.27404778 21.3827536,0.753414881 19.3557022,0.415569932 C18.0725485,0.201972634 16.7411656,0.104935466 15.4642338,0.110868829 Z M11.4247678,2.40048 C12.1963189,2.40048 12.8263928,3.04084569 12.8263928,3.82822231 C12.8263928,4.61280808 12.1963189,5.24725887 11.4247678,5.24725887 C10.6504506,5.24725887 10.0231427,4.6128078 10.0231427,3.82822231 C10.0231427,3.04084597 10.6504506,2.40048 11.4247678,2.40048 Z" id="path1948" fill="url(#linearGradient-1)"></path>
                    <path d="M24.0219819,8.09403775 L24.0219819,11.4109269 C24.0219819,13.9824663 21.8418139,16.1468523 19.3557022,16.1468526 L11.894878,16.1468526 C9.85123334,16.1468526 8.16011311,17.8959367 8.16011311,19.9425578 L8.16011311,27.0551512 C8.16011311,29.0794363 9.92036977,30.2700982 11.894878,30.8508564 C14.2593115,31.5460931 16.5266794,31.67174 19.3557022,30.8508564 C21.2361865,30.3063949 23.090468,29.2106633 23.0904671,27.0551512 L23.0904671,24.2083732 L15.629643,24.2083732 L15.629643,23.2594469 L23.0904671,23.2594469 L26.8252321,23.2594469 C28.9960868,23.2594469 29.8050359,21.7452299 30.5599954,19.4724475 C31.3398435,17.1326534 31.3066614,14.8825621 30.5599954,11.8810372 C30.0235041,9.71993927 28.9988476,8.09403775 26.8252321,8.09403775 L24.0219819,8.09403775 Z M19.8258125,26.1062258 C20.6001302,26.1062258 21.2274375,26.7406774 21.2274375,27.5252615 C21.2274375,28.312637 20.6001294,28.9530038 19.8258125,28.9530038 C19.0542605,28.9530038 18.4241874,28.312637 18.4241874,27.5252615 C18.4241874,26.7406774 19.0542597,26.1062258 19.8258125,26.1062258 Z" id="path1950" fill="url(#linearGradient-2)"></path>
                </g>
                <path d="M42.246686,28.5916193 L39.8374927,28.5916193 L39.8374927,10.2920023 L42.1954266,10.2920023 L42.1954266,12.1886013 L42.2723157,12.1886013 C42.6653067,11.5393119 43.2419695,11.0053648 44.0023215,10.5867441 C44.7626736,10.1681233 45.6468898,9.95881602 46.6549971,9.95881602 C47.5605849,9.95881602 48.3849993,10.1211359 49.1282647,10.4457806 C49.87153,10.7704253 50.5122665,11.2232124 51.0504933,11.8041555 C51.5887201,12.3850987 52.0030629,13.0642793 52.2935345,13.8417179 C52.5840061,14.6191565 52.7292397,15.452114 52.7292397,16.3406152 C52.7292397,17.2291165 52.5840061,18.0663455 52.2935345,18.8523273 C52.0030629,19.6383092 51.5929917,20.3217614 51.0633082,20.9027046 C50.5336247,21.4836477 49.8928882,21.9407064 49.1410795,22.2738944 C48.3892708,22.6070823 47.5434985,22.7736738 46.6037377,22.7736738 C45.7323229,22.7736738 44.9121803,22.5857245 44.143285,22.2098201 C43.3743896,21.8339157 42.7678259,21.3042402 42.3235752,20.6207777 L42.246686,20.6207777 L42.246686,28.5916193 Z M50.2431573,16.3406152 C50.2431573,15.7767586 50.1577256,15.2299968 49.9868601,14.7003134 C49.8159946,14.17063 49.5597,13.7007566 49.2179687,13.290679 C48.8762374,12.8806015 48.4533512,12.5559617 47.9492977,12.3167499 C47.4452442,12.077538 46.8600382,11.9579338 46.1936622,11.9579338 C45.578546,11.9579338 45.0189693,12.077538 44.5149158,12.3167499 C44.0108624,12.5559617 43.5794329,12.8806015 43.2206152,13.290679 C42.8617975,13.7007566 42.584145,14.17063 42.3876494,14.7003134 C42.1911539,15.2299968 42.0929077,15.7853018 42.0929077,16.3662449 C42.0929077,16.9471881 42.1911539,17.502493 42.3876494,18.0321764 C42.584145,18.5618599 42.8617975,19.0274617 43.2206152,19.4289959 C43.5794329,19.8305301 44.0108624,20.1508984 44.5149158,20.3901103 C45.0189693,20.6293222 45.578546,20.7489263 46.1936622,20.7489263 C46.8600382,20.7489263 47.4452442,20.6250506 47.9492977,20.3772954 C48.4533512,20.1295403 48.8762374,19.8006289 49.2179687,19.3905514 C49.5597,18.9804739 49.8159946,18.5106004 49.9868601,17.980917 C50.1577256,17.4512336 50.2431573,16.9044718 50.2431573,16.3406152 Z M60.7000813,19.8262565 L60.7513407,19.8262565 L64.1088334,10.2920023 L66.671805,10.2920023 L60.7769704,25.3110157 C60.5719316,25.8236125 60.3498097,26.2806712 60.1105978,26.6822055 C59.8713859,27.0837397 59.5894618,27.4254658 59.2648172,27.7073941 C58.9401725,27.9893223 58.5600022,28.2071727 58.1242948,28.3609518 C57.6885874,28.514731 57.1717266,28.5916193 56.573697,28.5916193 C56.3173985,28.5916193 56.0568323,28.5788044 55.7919907,28.5531747 C55.5271491,28.527545 55.2580396,28.4805576 54.9846547,28.4122113 L55.2153221,26.2849449 C55.6253995,26.4216374 56.0269277,26.4899826 56.4199187,26.4899826 C57.0521216,26.4899826 57.5219948,26.3148479 57.8295531,25.9645734 C58.1371114,25.6142989 58.4190352,25.1145244 58.6753337,24.4652351 L59.4442252,22.4404875 L54.2413929,10.2920023 L56.9325131,10.2920023 L60.7000813,19.8262565 Z M71.4389321,22.4404875 L69.0297388,22.4404875 L69.0297388,10.2920023 L71.4389321,10.2920023 L71.4389321,22.4404875 Z M71.8490075,5.90932095 C71.8490075,6.35357157 71.6909591,6.72092715 71.3748578,7.01139872 C71.0587565,7.30187029 70.6785862,7.44710389 70.2343355,7.44710389 C69.7900847,7.44710389 69.4141862,7.29759871 69.106628,6.99858387 C68.7990697,6.69956902 68.6452931,6.33648501 68.6452931,5.90932095 C68.6452931,5.46507034 68.7990697,5.09344317 69.106628,4.79442832 C69.4141862,4.49541348 69.7900847,4.3459083 70.2343355,4.3459083 C70.6785862,4.3459083 71.0587565,4.49541348 71.3748578,4.79442832 C71.6909591,5.09344317 71.8490075,5.46507034 71.8490075,5.90932095 Z M82.2034127,13.3675682 C81.9300277,12.9233176 81.5455859,12.5602336 81.0500754,12.2783053 C80.554565,11.996377 79.9992602,11.855415 79.3841439,11.855415 C79.110759,11.855415 78.837378,11.885316 78.563993,11.945119 C78.2906081,12.0049219 78.047128,12.0988966 77.8335461,12.2270459 C77.6199642,12.3551951 77.449101,12.517515 77.3209518,12.7140104 C77.1928027,12.9105059 77.128729,13.1539858 77.128729,13.4444573 C77.128729,13.9570542 77.3593942,14.3372245 77.8207313,14.5849797 C78.2820684,14.8327348 78.9740637,15.0591284 79.8967382,15.2641672 C80.4776814,15.4008596 81.0158999,15.5631796 81.5114103,15.7511317 C82.0069208,15.9390839 82.4383499,16.1740206 82.805711,16.4559489 C83.173072,16.7378772 83.4592676,17.0753318 83.6643064,17.4683227 C83.8693453,17.8613136 83.971863,18.3226439 83.971863,18.8523273 C83.971863,19.569963 83.8351725,20.1765268 83.5617876,20.6720371 C83.2884026,21.1675475 82.9253184,21.5733472 82.4725247,21.8894486 C82.0197309,22.20555 81.5028701,22.4319436 80.9219269,22.5686361 C80.3409837,22.7053286 79.742963,22.7736738 79.1278468,22.7736738 C78.2051723,22.7736738 77.3038696,22.5942676 76.4239118,22.2354498 C75.5439539,21.876632 74.8135143,21.3298702 74.2325711,20.595148 L75.949762,19.1342542 C76.2744067,19.612678 76.7229223,20.0142061 77.2953221,20.3388508 C77.867722,20.6634955 78.4956436,20.8258154 79.1791062,20.8258154 C79.4866645,20.8258154 79.7814031,20.7959144 80.0633314,20.7361114 C80.3452597,20.6763085 80.6015543,20.5780622 80.8322229,20.4413697 C81.0628914,20.3046772 81.2465693,20.125271 81.3832618,19.9031457 C81.5199542,19.6810204 81.5882995,19.3990963 81.5882995,19.0573651 C81.5882995,18.4935085 81.3191902,18.074894 80.7809634,17.801509 C80.2427366,17.528124 79.452495,17.2718294 78.4102147,17.0326175 C78.0001373,16.9300982 77.5857943,16.8062224 77.1671735,16.6609867 C76.7485528,16.5157509 76.3683825,16.3149868 76.0266512,16.0586883 C75.6849199,15.8023899 75.4072673,15.4820217 75.1936854,15.097574 C74.9801033,14.7131263 74.873314,14.2389813 74.873314,13.6751248 C74.873314,13.0258354 75.005733,12.4662589 75.2705746,11.9963784 C75.5354162,11.5264979 75.881414,11.1420561 76.3085781,10.8430412 C76.7357421,10.5440264 77.222702,10.3219044 77.7694719,10.1766686 C78.3162417,10.0314328 78.8800899,9.95881602 79.4610331,9.95881602 C80.3324479,9.95881602 81.1739483,10.1296791 81.9855601,10.4714103 C82.7971718,10.8131416 83.4250934,11.3086445 83.8693442,11.9579338 L82.2034127,13.3675682 Z M92.9678932,12.2654904 L89.738549,12.2654904 L89.738549,18.5960302 C89.738549,19.3307524 89.8752396,19.8561563 90.1486245,20.1722577 C90.4220094,20.4883591 90.8577104,20.6464074 91.45574,20.6464074 C91.6778652,20.6464074 91.9170735,20.620778 92.173372,20.5695183 C92.4296706,20.5182586 92.6603355,20.4413702 92.8653743,20.3388508 L92.9422635,22.3123389 C92.6517919,22.4148583 92.3314238,22.4960183 91.9811492,22.5558212 C91.6308745,22.6156242 91.2677906,22.6455252 90.8918862,22.6455252 C89.7470865,22.6455252 88.8714133,22.3294286 88.2648404,21.6972258 C87.6582675,21.065023 87.3549855,20.116733 87.3549855,18.8523273 L87.3549855,12.2654904 L85.0226814,12.2654904 L85.0226814,10.2920023 L87.3549855,10.2920023 L87.3549855,6.806361 L89.738549,6.806361 L89.738549,10.2920023 L92.9678932,10.2920023 L92.9678932,12.2654904 Z M103.014742,14.5721648 C103.014742,13.666577 102.741361,12.9959395 102.194591,12.5602322 C101.647821,12.1245248 100.921653,11.9066744 100.016065,11.9066744 C99.3326024,11.9066744 98.6875944,12.0390933 98.0810215,12.303935 C97.4744486,12.5687767 96.9661308,12.9062313 96.5560534,13.3163088 L95.2745676,11.7785258 C95.8725972,11.2146693 96.6030368,10.7704253 97.4659083,10.4457806 C98.3287798,10.1211359 99.2557119,9.95881602 100.246732,9.95881602 C101.118147,9.95881602 101.874216,10.0826917 102.514962,10.3304469 C103.155708,10.5782021 103.681112,10.9156566 104.09119,11.3428207 C104.501267,11.7699847 104.808821,12.2740307 105.01386,12.8549739 C105.218898,13.435917 105.321416,14.0595672 105.321416,14.7259431 L105.321416,20.0312943 C105.321416,20.4413718 105.334231,20.872801 105.359861,21.3255949 C105.38549,21.7783888 105.432478,22.150016 105.500824,22.4404875 L103.322298,22.4404875 C103.185606,21.8595444 103.117261,21.27861 103.117261,20.6976669 L103.040371,20.6976669 C102.596121,21.3469562 102.036544,21.8510023 101.361625,22.2098201 C100.686706,22.5686379 99.8879212,22.7480441 98.9652467,22.7480441 C98.4868229,22.7480441 97.9870485,22.6839705 97.4659083,22.5558212 C96.9447681,22.427672 96.4706231,22.2183648 96.0434591,21.9278932 C95.616295,21.6374216 95.2617541,21.2529798 94.9798259,20.774556 C94.6978976,20.2961323 94.5569356,19.7066547 94.5569356,19.0061056 C94.5569356,18.0834312 94.8046869,17.3529917 95.3001973,16.8147649 C95.7957078,16.2765382 96.4449873,15.8664669 97.2480557,15.5845386 C98.0511241,15.3026103 98.9566983,15.1189325 99.9648056,15.0334997 C100.972913,14.9480669 101.989548,14.9053511 103.014742,14.9053511 L103.014742,14.5721648 Z M102.425258,16.6481718 C101.827229,16.6481718 101.20785,16.6738013 100.567104,16.7250609 C99.9263579,16.7763206 99.3454234,16.8788385 98.8242832,17.0326175 C98.3031431,17.1863966 97.8717139,17.4170617 97.5299826,17.7246198 C97.1882513,18.032178 97.0173883,18.4422493 97.0173883,18.9548462 C97.0173883,19.313664 97.0900051,19.6126744 97.2352409,19.8518862 C97.3804767,20.0910981 97.5726976,20.2875906 97.8119095,20.4413697 C98.0511213,20.5951488 98.315959,20.7019382 98.6064306,20.7617411 C98.8969022,20.8215441 99.1959124,20.8514452 99.5034707,20.8514452 C100.631184,20.8514452 101.498314,20.5139906 102.104887,19.8390714 C102.71146,19.1641522 103.014742,18.3141084 103.014742,17.2889147 L103.014742,16.6481718 L102.425258,16.6481718 Z M111.523807,10.2920023 C111.55798,10.5995604 111.58361,10.9455581 111.600696,11.3300058 L111.614935,11.693094 C111.622529,11.9209134 111.626326,12.1202545 111.626326,12.2911201 L111.703215,12.2911201 C111.856994,11.9664754 112.066302,11.6631935 112.331143,11.3812652 C112.595985,11.0993369 112.899267,10.8515855 113.240998,10.6380035 C113.58273,10.4244215 113.958628,10.25783 114.368706,10.138224 C114.778783,10.0186181 115.205941,9.95881602 115.650192,9.95881602 C116.436173,9.95881602 117.111083,10.0912349 117.674939,10.3560766 C118.238796,10.6209183 118.708669,10.9754592 119.084573,11.4197098 C119.460478,11.8639604 119.73813,12.3850928 119.917539,12.9831225 C120.096948,13.5811521 120.186651,14.2218886 120.186651,14.9053511 L120.186651,22.4404875 L117.777458,22.4404875 L117.777458,15.6998723 C117.777458,15.204362 117.739014,14.7344886 117.662124,14.290238 C117.585235,13.8459873 117.444273,13.4530023 117.239234,13.111271 C117.034195,12.7695398 116.752271,12.4961589 116.393453,12.2911201 C116.034636,12.0860814 115.573305,11.9835636 115.009449,11.9835636 C114.052601,11.9835636 113.270903,12.3466476 112.66433,13.0728265 C112.057757,13.7990054 111.754475,14.7686533 111.754475,15.9817992 L111.754475,22.4404875 L109.345281,22.4404875 L109.345281,12.9062333 C109.345281,12.5815886 109.336738,12.1629741 109.319652,11.6503772 L109.306995,11.3175066 C109.290752,10.9394945 109.269342,10.5976619 109.242763,10.2920023 L111.523807,10.2920023 Z M126.64534,20.5182589 L126.64534,22.4404875 L124.313035,22.4404875 L124.313035,3.06442252 L126.722229,3.06442252 L126.722229,12.1117121 L126.799118,12.1117121 C127.209195,11.5136824 127.781586,11.0053648 128.516309,10.5867441 C129.251031,10.1681233 130.122433,9.95881602 131.13054,9.95881602 C132.036128,9.95881602 132.860542,10.1211359 133.603807,10.4457806 C134.347073,10.7704253 134.987809,11.2232124 135.526036,11.8041555 C136.064263,12.3850987 136.478606,13.0642793 136.769077,13.8417179 C137.059549,14.6191565 137.204782,15.452114 137.204782,16.3406152 C137.204782,17.2291165 137.059549,18.0663455 136.769077,18.8523273 C136.478606,19.6383092 136.068534,20.3217614 135.538851,20.9027046 C135.009167,21.4836477 134.368431,21.9407064 133.616622,22.2738944 C132.864813,22.6070823 132.019041,22.7736738 131.07928,22.7736738 C130.207866,22.7736738 129.37918,22.5814529 128.593198,22.1970052 C127.807216,21.8125576 127.175023,21.252981 126.696599,20.5182589 L126.64534,20.5182589 Z M134.7187,16.3406152 C134.7187,15.7767586 134.633268,15.2299968 134.462403,14.7003134 C134.291537,14.17063 134.035243,13.7007566 133.693511,13.290679 C133.35178,12.8806015 132.928894,12.5559617 132.42484,12.3167499 C131.920787,12.077538 131.335581,11.9579338 130.669205,11.9579338 C130.054089,11.9579338 129.494512,12.077538 128.990459,12.3167499 C128.486405,12.5559617 128.054976,12.8806015 127.696158,13.290679 C127.33734,13.7007566 127.059688,14.17063 126.863192,14.7003134 C126.666697,15.2299968 126.56845,15.7853018 126.56845,16.3662449 C126.56845,16.9471881 126.666697,17.502493 126.863192,18.0321764 C127.059688,18.5618599 127.33734,19.0274617 127.696158,19.4289959 C128.054976,19.8305301 128.486405,20.1508984 128.990459,20.3901103 C129.494512,20.6293222 130.054089,20.7489263 130.669205,20.7489263 C131.335581,20.7489263 131.920787,20.6250506 132.42484,20.3772954 C132.928894,20.1295403 133.35178,19.8006289 133.693511,19.3905514 C134.035243,18.9804739 134.291537,18.5106004 134.462403,17.980917 C134.633268,17.4512336 134.7187,16.9044718 134.7187,16.3406152 Z M149.1226,22.4404875 C149.093309,22.1768663 149.070295,21.8850037 149.053557,21.5648933 L149.045711,21.402484 C149.028624,21.0180364 149.020081,20.6976681 149.020081,20.4413697 L148.968822,20.4413697 C148.661264,21.0906591 148.144403,21.6416924 147.418224,22.0944864 C146.692045,22.5472803 145.884717,22.7736738 144.996216,22.7736738 C144.210234,22.7736738 143.531053,22.6455265 142.958654,22.3892281 C142.386254,22.1329297 141.91638,21.7783888 141.549019,21.3255949 C141.181658,20.872801 140.908277,20.3473971 140.728868,19.7493674 C140.549459,19.1513377 140.459756,18.5106012 140.459756,17.8271387 L140.459756,10.2920023 L142.86895,10.2920023 L142.86895,17.0069878 C142.86895,17.5024981 142.907394,17.9766431 142.984283,18.429437 C143.061173,18.8822309 143.202135,19.2794876 143.407174,19.6212188 C143.612212,19.9629501 143.894136,20.2363309 144.252954,20.4413697 C144.611772,20.6464085 145.073102,20.7489263 145.636959,20.7489263 C146.610893,20.7489263 147.396863,20.3858423 147.994893,19.6596634 C148.592922,18.9334845 148.891933,17.9638366 148.891933,16.7506907 L148.891933,10.2920023 L151.301126,10.2920023 L151.301126,19.8262565 C151.301126,20.0967938 151.307059,20.4325878 151.318924,20.833646 L151.326756,21.0821126 C151.343842,21.5947095 151.369472,22.0474966 151.403645,22.4404875 L149.1226,22.4404875 Z M157.939222,22.4404875 L155.530029,22.4404875 L155.530029,3.06442252 L157.939222,3.06442252 L157.939222,22.4404875 Z" id="pyistanbul" fill="#000000"></path>
            </g>
        </g>
    </g>
</svg>