<?xml version="1.0" encoding="UTF-8"?>
<svg width="567px" height="113px" viewBox="0 0 567 113" version="1.1" xmlns="http://www.w3.org/2000/svg" xmlns:xlink="http://www.w3.org/1999/xlink">
    <!-- Generator: Sketch 59.1 (86144) - https://sketch.com -->
    <title>Group</title>
    <desc>Created with Sketch.</desc>
    <defs>
        <linearGradient x1="0.959176447%" y1="9.14856261e-08%" x2="74.0505936%" y2="64.1103734%" id="linearGradient-1">
            <stop stop-color="#5A9FD4" offset="0%"></stop>
            <stop stop-color="#306998" offset="100%"></stop>
        </linearGradient>
        <linearGradient x1="49.9999998%" y1="82.2756107%" x2="24.2424815%" y2="44.914431%" id="linearGradient-2">
            <stop stop-color="#FFD43B" offset="0%"></stop>
            <stop stop-color="#FFE873" offset="100%"></stop>
        </linearGradient>
    </defs>
    <g id="Page-1" stroke="none" stroke-width="1" fill="none" fill-rule="evenodd">
        <g id="Artboard" transform="translate(-25.000000, -34.000000)" fill-rule="nonzero">
            <g id="Group" transform="translate(25.000000, 34.000000)">
                <g id="python-logo-generic">
                    <path d="M55.510156,0.3979729 C50.926503,0.4192712 46.549217,0.8101906 42.697656,1.4917229 C31.35144,3.4962267 29.291407,7.691825 29.291406,15.429223 L29.291406,25.647973 L56.103906,25.647973 L56.103906,29.054223 L29.291406,29.054223 L19.228906,29.054223 C11.436447,29.054223 4.6131468,33.73794 2.4789058,42.647973 C0.0170858,52.860939 -0.0921093,59.233996 2.4789058,69.897973 C4.3848341,77.835825 8.936449,83.491723 16.728906,83.491723 L25.947656,83.491723 L25.947656,71.241723 C25.947656,62.391821 33.6048,54.585475 42.697656,54.585473 L69.478906,54.585473 C76.933857,54.585473 82.885156,48.447309 82.885156,40.960473 L82.885156,15.429223 C82.885156,8.162884 76.755176,2.7044455 69.478906,1.4917229 C64.872919,0.7249976 60.093809,0.3766746 55.510156,0.3979729 Z M41.010156,8.616723 C43.779703,8.616723 46.041406,10.915369 46.041406,13.741723 C46.041406,16.558059 43.779703,18.835473 41.010156,18.835473 C38.23068,18.835473 35.978906,16.558058 35.978906,13.741723 C35.978906,10.91537 38.23068,8.616723 41.010156,8.616723 Z" id="path1948" fill="url(#linearGradient-1)"></path>
                    <path d="M86.228906,29.054223 L86.228906,40.960473 C86.228906,50.191228 78.403011,57.960472 69.478906,57.960473 L42.697656,57.960473 C35.361823,57.960473 29.291406,64.238956 29.291406,71.585473 L29.291406,97.11672 C29.291406,104.38306 35.609994,108.65704 42.697656,110.74172 C51.184987,113.23733 59.323893,113.68835 69.478906,110.74172 C76.229061,108.78733 82.885159,104.85411 82.885156,97.11672 L82.885156,86.897973 L56.103906,86.897973 L56.103906,83.491723 L82.885156,83.491723 L96.291406,83.491723 C104.08387,83.491723 106.98766,78.056315 109.69765,69.897973 C112.49698,61.499087 112.37787,53.422197 109.69765,42.647973 C107.77187,34.890532 104.09378,29.054223 96.291406,29.054223 L86.228906,29.054223 Z M71.166406,93.710473 C73.945884,93.710473 76.197656,95.98789 76.197656,98.80422 C76.197656,101.63057 73.945881,103.92922 71.166406,103.92922 C68.396856,103.92922 66.135156,101.63057 66.135156,98.80422 C66.135156,95.98789 68.396853,93.710473 71.166406,93.710473 Z" id="path1950" fill="url(#linearGradient-2)"></path>
                </g>
                <path d="M151.648,102.632 L143,102.632 L143,36.944 L151.464,36.944 L151.464,43.752 L151.74,43.752 C153.150674,41.4213217 155.220653,39.5046742 157.95,38.002 C160.679347,36.4993258 163.853315,35.748 167.472,35.748 C170.722683,35.748 173.681987,36.3306608 176.35,37.496 C179.018013,38.6613392 181.31799,40.2866562 183.25,42.372 C185.18201,44.4573438 186.669328,46.8953194 187.712,49.686 C188.754672,52.4766806 189.276,55.4666507 189.276,58.656 C189.276,61.8453493 188.754672,64.8506526 187.712,67.672 C186.669328,70.4933474 185.197343,72.9466562 183.296,75.032 C181.394657,77.1173438 179.09468,78.757994 176.396,79.954 C173.69732,81.150006 170.66135,81.748 167.288,81.748 C164.159984,81.748 161.216014,81.0733401 158.456,79.724 C155.695986,78.3746599 153.518675,76.4733456 151.924,74.02 L151.648,74.02 L151.648,102.632 Z M180.352,58.656 C180.352,56.6319899 180.045336,54.6693428 179.432,52.768 C178.818664,50.8666572 177.898673,49.1800074 176.672,47.708 C175.445327,46.2359926 173.927342,45.070671 172.118,44.212 C170.308658,43.353329 168.208012,42.924 165.816,42.924 C163.607989,42.924 161.599342,43.353329 159.79,44.212 C157.980658,45.070671 156.432006,46.2359926 155.144,47.708 C153.855994,49.1800074 152.859337,50.8666572 152.154,52.768 C151.448663,54.6693428 151.096,56.6626562 151.096,58.748 C151.096,60.8333438 151.448663,62.8266572 152.154,64.728 C152.859337,66.6293428 153.855994,68.3006595 155.144,69.742 C156.432006,71.1833405 157.980658,72.333329 159.79,73.192 C161.599342,74.050671 163.607989,74.48 165.816,74.48 C168.208012,74.48 170.308658,74.0353378 172.118,73.146 C173.927342,72.2566622 175.445327,71.0760074 176.672,69.604 C177.898673,68.1319926 178.818664,66.4453428 179.432,64.544 C180.045336,62.6426572 180.352,60.6800101 180.352,58.656 Z M217.888,71.168 L218.072,71.168 L230.124,36.944 L239.324,36.944 L218.164,90.856 C217.427996,92.6960092 216.630671,94.3366595 215.772,95.778 C214.913329,97.2193405 213.901339,98.4459949 212.736,99.458 C211.570661,100.470005 210.206008,101.251997 208.642,101.804 C207.077992,102.356003 205.222677,102.632 203.076,102.632 C202.155995,102.632 201.220671,102.586 200.27,102.494 C199.319329,102.402 198.353338,102.233335 197.372,101.988 L198.2,94.352 C199.672007,94.8426691 201.113326,95.088 202.524,95.088 C204.793345,95.088 206.479994,94.4593396 207.584,93.202 C208.688006,91.9446604 209.699995,90.1506783 210.62,87.82 L213.38,80.552 L194.704,36.944 L204.364,36.944 L217.888,71.168 Z M256.436,80.552 L247.788,80.552 L247.788,36.944 L256.436,36.944 L256.436,80.552 Z M257.908,21.212 C257.908,22.8066746 257.340672,24.1253281 256.206,25.168 C255.071328,26.2106719 253.706675,26.732 252.112,26.732 C250.517325,26.732 249.168006,26.1953387 248.064,25.122 C246.959994,24.0486613 246.408,22.745341 246.408,21.212 C246.408,19.6173254 246.959994,18.2833387 248.064,17.21 C249.168006,16.1366613 250.517325,15.6 252.112,15.6 C253.706675,15.6 255.071328,16.1366613 256.206,17.21 C257.340672,18.2833387 257.908,19.6173254 257.908,21.212 Z M295.076,47.984 C294.094662,46.3893254 292.714676,45.0860051 290.936,44.074 C289.157324,43.0619949 287.164011,42.556 284.956,42.556 C283.974662,42.556 282.993338,42.6633323 282.012,42.878 C281.030662,43.0926677 280.15667,43.4299977 279.39,43.89 C278.62333,44.3500023 278.010002,44.9326631 277.55,45.638 C277.089998,46.3433369 276.86,47.2173281 276.86,48.26 C276.86,50.1000092 277.687992,51.4646622 279.344,52.354 C281.000008,53.2433378 283.483983,54.0559963 286.796,54.792 C288.881344,55.2826691 290.813324,55.86533 292.592,56.54 C294.370676,57.21467 295.919327,58.0579949 297.238,59.07 C298.556673,60.0820051 299.583996,61.2933263 300.32,62.704 C301.056004,64.1146737 301.424,65.7706572 301.424,67.672 C301.424,70.2480129 300.933338,72.4253244 299.952,74.204 C298.970662,75.9826756 297.667341,77.4393277 296.042,78.574 C294.416659,79.7086723 292.561344,80.5213309 290.476,81.012 C288.390656,81.5026691 286.244011,81.748 284.036,81.748 C280.723983,81.748 277.488682,81.1040064 274.33,79.816 C271.171318,78.5279936 268.549344,76.5653465 266.464,73.928 L272.628,68.684 C273.793339,70.4013419 275.403323,71.8426608 277.458,73.008 C279.512677,74.1733392 281.766654,74.756 284.22,74.756 C285.324006,74.756 286.381995,74.6486677 287.394,74.434 C288.406005,74.2193323 289.325996,73.8666691 290.154,73.376 C290.982004,72.8853309 291.641331,72.2413373 292.132,71.444 C292.622669,70.6466627 292.868,69.6346728 292.868,68.408 C292.868,66.3839899 291.90201,64.8813382 289.97,63.9 C288.03799,62.9186618 285.201352,61.998671 281.46,61.14 C279.987993,60.7719982 278.500674,60.3273359 276.998,59.806 C275.495326,59.2846641 274.130673,58.5640046 272.904,57.644 C271.677327,56.7239954 270.68067,55.5740069 269.914,54.194 C269.147329,52.8139931 268.764,51.1120101 268.764,49.088 C268.764,46.7573217 269.239329,44.7486751 270.19,43.062 C271.140671,41.3753249 272.382659,39.9953387 273.916,38.922 C275.449341,37.8486613 277.197324,37.0513359 279.16,36.53 C281.122676,36.0086641 283.146656,35.748 285.232,35.748 C288.360016,35.748 291.380652,36.3613272 294.294,37.588 C297.207348,38.8146728 299.461325,40.5933217 301.056,42.924 L295.076,47.984 Z M333.716,44.028 L322.124,44.028 L322.124,66.752 C322.124,69.3893465 322.614662,71.2753277 323.596,72.41 C324.577338,73.5446723 326.141323,74.112 328.288,74.112 C329.085337,74.112 329.943995,74.0200009 330.864,73.836 C331.784005,73.6519991 332.611996,73.3760018 333.348,73.008 L333.624,80.092 C332.581328,80.4600018 331.43134,80.7513323 330.174,80.966 C328.91666,81.1806677 327.61334,81.288 326.264,81.288 C322.154646,81.288 319.011344,80.1533447 316.834,77.884 C314.656656,75.6146553 313.568,72.2106894 313.568,67.672 L313.568,44.028 L305.196,44.028 L305.196,36.944 L313.568,36.944 L313.568,24.432 L322.124,24.432 L322.124,36.944 L333.716,36.944 L333.716,44.028 Z M369.78,52.308 C369.78,49.0573171 368.798676,46.6500078 366.836,45.086 C364.873324,43.5219922 362.266683,42.74 359.016,42.74 C356.562654,42.74 354.247344,43.2153286 352.07,44.166 C349.892656,45.1166714 348.068007,46.3279926 346.596,47.8 L341.996,42.28 C344.142677,40.2559899 346.764651,38.6613392 349.862,37.496 C352.959349,36.3306608 356.286649,35.748 359.844,35.748 C362.972016,35.748 365.685988,36.1926622 367.986,37.082 C370.286011,37.9713378 372.171993,39.182659 373.644,40.716 C375.116007,42.249341 376.219996,44.0586562 376.956,46.144 C377.692004,48.2293438 378.06,50.467988 378.06,52.86 L378.06,71.904 C378.06,73.3760074 378.106,74.9246585 378.198,76.55 C378.29,78.1753415 378.458665,79.5093281 378.704,80.552 L370.884,80.552 C370.393331,78.4666562 370.148,76.3813438 370.148,74.296 L369.872,74.296 C368.277325,76.6266783 366.268679,78.4359936 363.846,79.724 C361.423321,81.0120064 358.556017,81.656 355.244,81.656 C353.526658,81.656 351.732676,81.4260023 349.862,80.966 C347.991324,80.5059977 346.289341,79.7546719 344.756,78.712 C343.222659,77.6693281 341.950005,76.2893419 340.938,74.572 C339.925995,72.8546581 339.42,70.7386792 339.42,68.224 C339.42,64.9119834 340.309324,62.2900097 342.088,60.358 C343.866676,58.4259903 346.197319,56.9540051 349.08,55.942 C351.962681,54.9299949 355.213315,54.2706682 358.832,53.964 C362.450685,53.6573318 366.099982,53.504 369.78,53.504 L369.78,52.308 Z M367.664,59.76 C365.517323,59.76 363.294012,59.8519991 360.994,60.036 C358.693989,60.2200009 356.608676,60.5879972 354.738,61.14 C352.867324,61.6920028 351.318673,62.5199945 350.092,63.624 C348.865327,64.7280055 348.252,66.1999908 348.252,68.04 C348.252,69.3280064 348.512664,70.401329 349.034,71.26 C349.555336,72.118671 350.245329,72.8239972 351.104,73.376 C351.962671,73.9280028 352.913328,74.3113323 353.956,74.526 C354.998672,74.7406677 356.071994,74.848 357.176,74.848 C361.22402,74.848 364.336656,73.6366788 366.514,71.214 C368.691344,68.7913212 369.78,65.7400184 369.78,62.06 L369.78,59.76 L367.664,59.76 Z M400.324,36.944 C400.446667,38.0480055 400.538666,39.2899931 400.6,40.67 L400.651111,41.9733354 C400.678371,42.7911121 400.692,43.5066636 400.692,44.12 L400.968,44.12 C401.520003,42.9546608 402.271329,41.8660051 403.222,40.854 C404.172671,39.8419949 405.261327,38.9526705 406.488,38.186 C407.714673,37.4193295 409.063993,36.8213355 410.536,36.392 C412.008007,35.9626645 413.541325,35.748 415.136,35.748 C417.957347,35.748 420.37999,36.2233286 422.404,37.174 C424.42801,38.1246714 426.11466,39.3973254 427.464,40.992 C428.81334,42.5866746 429.809997,44.4573226 430.454,46.604 C431.098003,48.7506774 431.42,51.0506544 431.42,53.504 L431.42,80.552 L422.772,80.552 L422.772,56.356 C422.772,54.5773244 422.634001,52.8906746 422.358,51.296 C422.081999,49.7013254 421.576004,48.2906728 420.84,47.064 C420.103996,45.8373272 419.092006,44.8560037 417.804,44.12 C416.515994,43.3839963 414.86001,43.016 412.836,43.016 C409.401316,43.016 406.595344,44.3193203 404.418,46.926 C402.240656,49.5326797 401.152,53.0133116 401.152,57.368 L401.152,80.552 L392.504,80.552 L392.504,46.328 C392.504,45.1626608 392.473334,43.6600092 392.412,41.82 L392.366568,40.6251329 C392.308263,39.2682273 392.231408,38.0411907 392.136,36.944 L400.324,36.944 Z M454.604,73.652 L454.604,80.552 L446.232,80.552 L446.232,11 L454.88,11 L454.88,43.476 L455.156,43.476 C456.628007,41.3293226 458.682653,39.5046742 461.32,38.002 C463.957347,36.4993258 467.085315,35.748 470.704,35.748 C473.954683,35.748 476.913987,36.3306608 479.582,37.496 C482.250013,38.6613392 484.54999,40.2866562 486.482,42.372 C488.41401,44.4573438 489.901328,46.8953194 490.944,49.686 C491.986672,52.4766806 492.508,55.4666507 492.508,58.656 C492.508,61.8453493 491.986672,64.8506526 490.944,67.672 C489.901328,70.4933474 488.429343,72.9466562 486.528,75.032 C484.626657,77.1173438 482.32668,78.757994 479.628,79.954 C476.92932,81.150006 473.89335,81.748 470.52,81.748 C467.391984,81.748 464.417347,81.0580069 461.596,79.678 C458.774653,78.2979931 456.505342,76.2893465 454.788,73.652 L454.604,73.652 Z M483.584,58.656 C483.584,56.6319899 483.277336,54.6693428 482.664,52.768 C482.050664,50.8666572 481.130673,49.1800074 479.904,47.708 C478.677327,46.2359926 477.159342,45.070671 475.35,44.212 C473.540658,43.353329 471.440012,42.924 469.048,42.924 C466.839989,42.924 464.831342,43.353329 463.022,44.212 C461.212658,45.070671 459.664006,46.2359926 458.376,47.708 C457.087994,49.1800074 456.091337,50.8666572 455.386,52.768 C454.680663,54.6693428 454.328,56.6626562 454.328,58.748 C454.328,60.8333438 454.680663,62.8266572 455.386,64.728 C456.091337,66.6293428 457.087994,68.3006595 458.376,69.742 C459.664006,71.1833405 461.212658,72.333329 463.022,73.192 C464.831342,74.050671 466.839989,74.48 469.048,74.48 C471.440012,74.48 473.540658,74.0353378 475.35,73.146 C477.159342,72.2566622 478.677327,71.0760074 479.904,69.604 C481.130673,68.1319926 482.050664,66.4453428 482.664,64.544 C483.277336,62.6426572 483.584,60.6800101 483.584,58.656 Z M535.288,80.552 C535.182857,79.6057096 535.100245,78.5580445 535.040163,77.4089815 L535.012,76.826 C534.950666,75.4459931 534.92,74.2960046 534.92,73.376 L534.736,73.376 C533.631994,75.7066783 531.77668,77.6846585 529.17,79.31 C526.56332,80.9353415 523.665349,81.748 520.476,81.748 C517.654653,81.748 515.216677,81.2880046 513.162,80.368 C511.107323,79.4479954 509.420673,78.1753415 508.102,76.55 C506.783327,74.9246585 505.802003,73.0386774 505.158,70.892 C504.513997,68.7453226 504.192,66.4453456 504.192,63.992 L504.192,36.944 L512.84,36.944 L512.84,61.048 C512.84,62.8266756 512.977999,64.5286585 513.254,66.154 C513.530001,67.7793415 514.035996,69.2053272 514.772,70.432 C515.508004,71.6586728 516.519994,72.6399963 517.808,73.376 C519.096006,74.1120037 520.75199,74.48 522.776,74.48 C526.272017,74.48 529.093323,73.1766797 531.24,70.57 C533.386677,67.9633203 534.46,64.4826884 534.46,60.128 L534.46,36.944 L543.108,36.944 L543.108,71.168 C543.108,72.139116 543.129296,73.3444767 543.171889,74.7841083 L543.2,75.676 C543.261334,77.5160092 543.353333,79.1413263 543.476,80.552 L535.288,80.552 Z M566.936,80.552 L558.288,80.552 L558.288,11 L566.936,11 L566.936,80.552 Z" id="pyistanbul" fill="#FFFFFF"></path>
            </g>
        </g>
    </g>
</svg>