<svg xmlns="http://www.w3.org/2000/svg" viewBox="0 0 356.39 134.91"><defs><style>.cls-1{fill:#ff4713;}.cls-2{fill:#fff;}</style></defs><title>sufle-logo</title><g id="Layer_2" data-name="Layer 2"><g id="Layer_1-2" data-name="Layer 1"><path class="cls-1" d="M294.83,134.91H0L17.07,36.65C20.88,14.71,39,0,62.24,0H356.39L340.05,97.94C336.37,120.05,318.18,134.91,294.83,134.91Z"/><path class="cls-2" d="M83.54,108c-9.23,0-16.46-2.45-22.57-7.45a1.76,1.76,0,0,1-.33-2.67L67,89.22a1.77,1.77,0,0,1,2.67-.44,23.79,23.79,0,0,0,14.45,4.78c5.34,0,8-1.67,8.57-4.23.77-3.44-3.12-4.33-7.57-5.33C74.2,81.77,65.53,75.21,68,63.21c2.34-11.23,11.68-16,25.13-16a37,37,0,0,1,19.57,5.11,1.63,1.63,0,0,1,.44,2.67l-6.56,8.78a1.84,1.84,0,0,1-2.67.56,24.44,24.44,0,0,0-12.34-3c-4.11,0-6.67.88-7.11,3.66-.67,3.34,2.89,4.34,8.23,5.56,8.56,1.89,19.23,7.23,16.89,20.24C107.33,102.56,97.44,108,83.54,108Z"/><path class="cls-2" d="M170.23,48.75a1.51,1.51,0,0,1,1.67,2l-9,50.81a2.59,2.59,0,0,1-1.67,2,63.34,63.34,0,0,1-22.35,4.34c-16.56,0-24.12-10.56-21.34-26.24l5.55-31.24a1.87,1.87,0,0,1,2-1.67H138a1.55,1.55,0,0,1,1.67,2L134.1,83.33c-1.22,6.89,1.22,10.12,6.78,10.12a19.12,19.12,0,0,0,6.9-1.23l7.44-41.8a1.8,1.8,0,0,1,2-1.67Z"/><path class="cls-2" d="M208.68,40.3c-4.67,0-7.34,2.56-8.34,7.79L200,50.31h9.79c1.22,0,1.89.78,1.78,2.11l-1.78,10.23a2,2,0,0,1-2.11,1.78H197.45l-7.23,40.36a1.81,1.81,0,0,1-2,1.77h-12.9a1.66,1.66,0,0,1-1.78-2.11l10.34-57.92c2.45-13.79,10.79-20.9,24.57-20.9a44.14,44.14,0,0,1,7,.44A1.78,1.78,0,0,1,217,28.41L215.12,39c-.11,1.33-.77,1.78-1.77,1.67A30.92,30.92,0,0,0,208.68,40.3Z"/><path class="cls-2" d="M230,108c-12,0-18.23-9.45-15.79-23.9L224,28.85a2,2,0,0,1,2-1.78h12.9a1.63,1.63,0,0,1,1.66,2.12L230.8,85c-1,5.33.33,8.33,4.34,8.33h2.22c1.33-.11,2,.45,1.78,1.78l-1.78,10.56c-.22,1.12-.67,1.67-1.45,1.78A28.06,28.06,0,0,1,230,108Z"/><path class="cls-2" d="M274.35,47.2c14.23,0,24.34,7.56,21.34,23.9L293.8,81.88a1.86,1.86,0,0,1-2,1.67H260.89l-.33,1.56c-1.11,5.89,1.56,8.78,7.67,8.78a28.88,28.88,0,0,0,14.45-4.45c1.12-.78,2-.66,2.56.56l4.56,8.56c.44,1.11.33,2.11-.67,2.67-6,4.11-13.56,6.78-23.23,6.78-14.57,0-24.68-8.89-22.13-23.35l2.89-16.12C249.33,54,260.89,47.2,274.35,47.2Zm5.33,22.45c.78-4.44-1.11-8.33-6.78-8.33-4.78,0-8.45,2.89-9.45,8.11l-.56,3h16.24Z"/></g></g></svg>